<?xml version="1.0" encoding="utf-8"?>
<!-- Generator: Adobe Illustrator 27.5.0, SVG Export Plug-In . SVG Version: 6.00 Build 0)  -->
<svg version="1.1" xmlns="http://www.w3.org/2000/svg" xmlns:xlink="http://www.w3.org/1999/xlink" x="0px" y="0px"
	 viewBox="0 0 600 500" style="enable-background:new 0 0 600 500;" xml:space="preserve">
<g id="BACKGROUND">
	<g>
		<g>
			<rect style="fill:#433A61;" width="600" height="500"/>
		</g>
		<g style="opacity:0.96;">
			<rect style="fill:#FFFFFF;" width="600" height="500"/>
		</g>
	</g>
</g>
<g id="OBJECTS">
	<g>
		<g>
			<path style="fill:#FFFFFF;" d="M53.769,129.694c1.714-5.141-0.428-10.282,18.422-11.995c18.85-1.714,162.795-2.999,167.079,3.427
				c4.284,6.426,4.284,14.566,4.284,22.706c0,8.14,3.856,151.657-0.857,160.225c-4.712,8.568-2.142,6.426-20.992,9.425
				c-18.85,2.999-159.368,1.714-166.651-4.284C47.772,303.199,52.056,134.835,53.769,129.694z"/>
			<path style="opacity:0.2;fill:#433A61;" d="M53.769,129.694c1.714-5.141-0.428-10.282,18.422-11.995
				c18.85-1.714,162.795-2.999,167.079,3.427c4.284,6.426,4.284,14.566,4.284,22.706c0,8.14,3.856,151.657-0.857,160.225
				c-4.712,8.568-2.142,6.426-20.992,9.425c-18.85,2.999-159.368,1.714-166.651-4.284C47.772,303.199,52.056,134.835,53.769,129.694
				z"/>
			<path style="fill:#433A61;" d="M243.67,150.672c-0.072-3.587-0.115-5.978-0.115-6.841c0-8.14,0-16.28-4.284-22.706
				c-4.284-6.426-148.229-5.141-167.079-3.427c-18.85,1.714-16.708,6.854-18.422,11.995c-0.36,1.079-0.832,9.345-1.287,21.787
				L243.67,150.672z"/>
			<path style="opacity:0.58;fill:#FFFFFF;" d="M243.67,150.672c-0.072-3.587-0.115-5.978-0.115-6.841c0-8.14,0-16.28-4.284-22.706
				c-4.284-6.426-148.229-5.141-167.079-3.427c-18.85,1.714-16.708,6.854-18.422,11.995c-0.36,1.079-0.832,9.345-1.287,21.787
				L243.67,150.672z"/>
			<path style="fill:#FFFFFF;" d="M202.657,131.46c6.923-0.198,7.516,10.483,0,9.692C195.141,140.36,196.722,131.629,202.657,131.46
				z"/>
			<path style="fill:#FFFFFF;" d="M215.909,131.064c6.923-0.198,7.516,10.483,0,9.692
				C208.393,139.965,209.974,131.234,215.909,131.064z"/>
			<path style="fill:#FFFFFF;" d="M229.755,130.866c6.923-0.198,7.516,10.483,0,9.692S223.82,131.036,229.755,130.866z"/>
		</g>
		<g>
			<g>
				<path style="fill:#FAA485;" d="M139.923,261.485c0,0,24.57,20.155,31.23,21.347c6.66,1.192,23.326-1.247,23.326-1.247
					l3.154,8.462c0,0-20.849,10.921-33.146,6.669c-10.171-3.517-35.857-20.317-35.857-20.317L139.923,261.485z"/>
				<path style="fill:#F15657;" d="M155.218,293.26l11.359-13.198c0,0-19.31-15.449-21.908-14.071
					c-2.598,1.377-10.904,11.187-9.085,15.128C137.404,285.061,155.218,293.26,155.218,293.26z"/>
				<path style="opacity:0.4;fill:#F15657;" d="M155.218,293.26l11.359-13.198c0,0-19.31-15.449-21.908-14.071
					c-2.598,1.377-10.904,11.187-9.085,15.128C137.404,285.061,155.218,293.26,155.218,293.26z"/>
			</g>
			<g>
				<path style="fill:#FFFFFF;" d="M115.215,261.434c-13.651,4.073-10.854,42.789-9.962,52.228
					c7.802,0.263,15.955,0.48,24.226,0.651l22.758-1.346c0,0,1.391-39.071-5.885-47.207
					C139.076,257.624,122.253,259.334,115.215,261.434z"/>
				<path style="opacity:0.19;fill:#433A61;" d="M131.001,314.223l-19.625-26.186c0,0-4.634,13.677-0.018,25.819
					c5.913,0.178,11.984,0.33,18.122,0.457L131.001,314.223z"/>
				<path style="fill:#F15657;" d="M130.859,267.382c0,0,9.925,7.834,10.675,5.01c0.75-2.824-1.243-16.152-7.183-17.498
					c-5.94-1.346-21.414,7.196-19.977,12.04c1.437,4.844,9.694,14.118,13.086,13.822
					C130.852,280.459,130.859,267.382,130.859,267.382z"/>
				
					<ellipse transform="matrix(0.9996 -0.0287 0.0287 0.9996 -7.5063 3.7263)" style="fill:#FAA485;" cx="126.006" cy="263.248" rx="8.035" ry="7.393"/>
				
					<ellipse transform="matrix(0.9996 -0.0287 0.0287 0.9996 -7.5063 3.7263)" style="opacity:0.23;fill:#F15657;" cx="126.006" cy="263.248" rx="8.035" ry="7.393"/>
				<polygon style="opacity:0.5;fill:#F15657;" points="124.519,258.487 123.863,267.018 129.382,266.811 129.474,257.706 				"/>
			</g>
			<g>
				<path style="fill:#FAA485;" d="M64.148,238.752c2.101,8.858,10.386,14.477,18.506,12.552
					c8.12-1.926,12.999-10.667,10.898-19.525c-2.101-8.858-10.386-14.477-18.506-12.552
					C66.926,221.153,62.047,229.894,64.148,238.752z"/>
				<path style="opacity:0.5;fill:#F15657;" d="M67.118,237.83c1.239,5.223,6.124,8.536,10.911,7.401
					c4.788-1.136,7.665-6.29,6.426-11.513c-1.239-5.223-6.124-8.536-10.912-7.401C68.756,227.453,65.879,232.607,67.118,237.83z"/>
				<path style="fill:#FAA485;" d="M155.537,217.49c2.101,8.858,10.386,14.477,18.506,12.551
					c8.119-1.926,12.999-10.668,10.898-19.525s-10.386-14.477-18.506-12.552C158.316,199.89,153.436,208.632,155.537,217.49z"/>
				<path style="opacity:0.5;fill:#F15657;" d="M162.238,215.778c1.239,5.223,6.124,8.536,10.912,7.401
					c4.787-1.135,7.664-6.29,6.425-11.512c-1.238-5.223-6.124-8.536-10.911-7.401C163.876,205.401,160.999,210.555,162.238,215.778z
					"/>
				<g>
					<path style="fill:#FAA485;" d="M105.477,177.338l17.818-7.225c21.632-5.13,44.687,14.151,49.817,35.783l1.534,6.466
						c5.13,21.632-8.247,43.327-29.879,48.458l-16.808,3.986c-21.632,5.13-43.327-8.247-48.458-29.879l-1.533-6.466
						C73.17,206.813,94,182.008,105.477,177.338z"/>
				</g>
				<path style="fill:#FFFFFF;" d="M123.871,234.092c1.821-0.38,4.083,0.273,5.91,1.034c1.919,0.799,4.148,0.554,5.809-0.696
					c1.833-1.381,4.397-2.589,6.74-1.141c4.26,2.633,0.866,12.108-10.7,11.285C120.064,243.751,120.177,234.863,123.871,234.092z"/>
				<path style="fill:#433A61;" d="M81.312,241.521c0,0,5.631-5.067,6.536-6.161c4.679-5.654-5.775-20-5.775-20
					s4.432-9.277,7.326-18.538c0,0,6.721-16.737,16.079-19.484c9.358-2.748,18.619-0.433,18.619-0.433l6.367-6.367v7.525
					c0,0,4.052-4.631,7.525-5.788c3.473-1.158,14.471,5.788,20.838,11.577c6.367,5.788,15.281,27.097,15.281,27.097l3.875-2.512
					l-4.593-16.865c0,0,1.435-15.89,1.435-20.669c0-4.779-19.074-15.251-22.75-16.722c0,0,1.838-5.882-0.368-8.822
					c-2.206-2.941-13.601-6.984-13.601-6.984s7.72,8.087,6.617,11.395c0,0-5.882-6.984-9.19-8.455l0.368,6.617l-13.234-7.719
					l2.206,6.249c0,0-36.714,1.766-51.418,9.118c-14.704,7.352-23.098,48.291-21.26,55.276c1.838,6.984,11.87,20.412,11.87,20.412
					s10.89-7.679,11.697-8.515C76.001,222.503,81.312,241.521,81.312,241.521z"/>
				<g>
					<path style="opacity:0.15;fill:#FFFFFF;" d="M151.503,159.972c-1.703,2.474,12.704,13.23,14.876,10.543
						C168.551,167.828,153.206,157.499,151.503,159.972z"/>
					<path style="opacity:0.15;fill:#FFFFFF;" d="M150.715,166.444c-2.027,2.508,8.576,11.375,10.203,9.728
						C162.546,174.525,152.742,163.936,150.715,166.444z"/>
					<path style="opacity:0.15;fill:#FFFFFF;" d="M71.123,166.559c-8.842,2.443-10.805,14.993-6.749,16.878
						C68.429,185.323,79.965,164.116,71.123,166.559z"/>
					<path style="opacity:0.15;fill:#FFFFFF;" d="M80.293,176.229c-3.574,0.118-8.987,10.212-5.501,11.493
						C78.278,189.003,83.867,176.111,80.293,176.229z"/>
				</g>
				<g>
					<g>
						<path style="fill:#433A61;" d="M100.765,206.242c0.664-1.783,1.585-4.165,3.47-4.982c0.421-0.183,0.919-0.284,1.368-0.373
							c0.497-0.098,0.987,0.064,1.457,0.238c1.106,0.409,2.069,1.192,2.984,1.915c1.05,0.829,2.202-0.638,1.129-1.463
							c-1.133-0.871-2.278-1.705-3.629-2.206c-0.616-0.228-1.295-0.366-1.941-0.472c-0.815-0.133-1.53-0.011-2.279,0.325
							c-1.144,0.512-2.141,1.486-2.761,2.569c-0.717,1.253-1.01,2.637-1.347,4.022C98.969,206.834,100.408,207.198,100.765,206.242
							L100.765,206.242z"/>
					</g>
				</g>
				<g>
					<g>
						<path style="fill:#433A61;" d="M136.69,198.873c0.499-1.045,1.126-2.036,1.764-3.003c0.469-0.711,0.984-1.623,1.827-1.936
							c1.916-0.712,3.903,1.348,5.343,2.287c1.197,0.781,2.308-1.136,1.118-1.912c-2.115-1.38-4.401-3.454-7.145-2.549
							c-2.617,0.863-3.712,4.096-4.459,6.459C134.851,199.121,136.27,199.751,136.69,198.873L136.69,198.873z"/>
					</g>
				</g>
				<g>
					<g>
						<path style="fill:#433A61;" d="M130.815,225.129c0.559,0.692,1.097,1.408,1.682,2.078c0.271,0.31,0.704,0.098,0.83-0.219
							c0.197-0.495,0.421-0.977,0.637-1.464c0.106-0.239,0.215-0.476,0.331-0.711c0.106-0.215,0.232-0.555,0.427-0.701
							c-0.193-0.079-0.387-0.158-0.581-0.236c0.125,0.636,0.323,1.263,0.464,1.897c0.069,0.311,0.131,0.624,0.186,0.939
							c0.056,0.316,0.053,0.719,0.234,0.992c0.199,0.3,0.654,0.253,0.764-0.1c0.105-0.34-0.031-0.759-0.096-1.1
							c-0.063-0.326-0.132-0.65-0.21-0.973c-0.158-0.659-0.335-1.342-0.62-1.96c-0.141-0.307-0.654-0.224-0.722,0.094
							c-0.057,0.265-0.257,0.506-0.409,0.728c-0.163,0.236-0.323,0.474-0.478,0.715c-0.31,0.479-0.577,0.988-0.835,1.497
							c0.286,0,0.572,0,0.858,0c-0.557-0.747-1.17-1.458-1.755-2.184c-0.17-0.21-0.53-0.177-0.707,0
							C130.607,224.63,130.645,224.918,130.815,225.129L130.815,225.129z"/>
					</g>
				</g>
				<g>
					<path style="fill:#FFFFFF;" d="M148.902,227.372L148.902,227.372c-5.514,0.921-10.73-2.804-11.651-8.318l-0.882-5.286
						c-0.921-5.514,2.803-10.73,8.318-11.651l0,0c5.514-0.92,10.73,2.804,11.651,8.318l0.882,5.286
						C158.141,221.235,154.417,226.451,148.902,227.372z"/>
					<path style="fill:#433A61;" d="M149.982,202.662c-0.024,0.004-0.048,0.005-0.072,0.009c-4.865,0.812-7.998,6.335-6.996,12.336
						c1.002,6.001,5.758,10.207,10.623,9.395c0.441-0.074,0.863-0.199,1.274-0.347c0.083-0.075,0.153-0.162,0.233-0.24
						c1.793-2.181,2.677-5.09,2.176-8.093l-0.882-5.286C155.726,206.771,153.213,203.908,149.982,202.662z"/>
				</g>
				<g>
					<path style="fill:#FFFFFF;" d="M114.439,234.561L114.439,234.561c-5.483,1.092-10.813-2.468-11.905-7.95l-1.046-5.256
						c-1.092-5.483,2.468-10.813,7.951-11.904l0,0c5.483-1.092,10.813,2.468,11.905,7.951l1.046,5.256
						C123.481,228.139,119.922,233.469,114.439,234.561z"/>
					<path style="fill:#433A61;" d="M121.343,217.401c-0.591-2.967-2.428-5.361-4.853-6.77c-0.84-0.127-1.698-0.122-2.556,0.049
						c-4.838,0.963-7.796,6.581-6.608,12.548c1.188,5.967,6.073,10.022,10.911,9.059c0.439-0.087,0.856-0.225,1.263-0.387
						c2.384-2.313,3.588-5.744,2.891-9.244L121.343,217.401z"/>
				</g>
				<path style="opacity:0.23;fill:#F15657;" d="M154.871,232.681c1.318,3.578,6.198,5.074,10.9,3.342
					c4.702-1.732,7.446-6.037,6.128-9.615c-1.318-3.578-6.198-5.074-10.9-3.342C156.297,224.799,153.553,229.104,154.871,232.681z"
					/>
				<path style="opacity:0.23;fill:#F15657;" d="M94.548,245.328c0.884,3.709,5.553,5.773,10.427,4.611
					c4.875-1.163,8.109-5.111,7.225-8.82c-0.884-3.709-5.553-5.773-10.427-4.611C96.898,237.671,93.664,241.62,94.548,245.328z"/>
			</g>
			<g>
				<g>
					<g>
						<path style="fill:#433A61;" d="M318.623,197.578c-7.423-33.17-41.718-74.287-96.188-50.858
							c-61.464,26.437-47.668,116.725,14.554,126.98C301.101,284.267,324.906,225.652,318.623,197.578z M257.543,257.889
							c-38.924,7.971-58.691-28.193-57.828-46.341c0,0-1.159-42.218,35.824-53.29c34.158-10.225,59.253,15.218,64.181,36.127
							C304.647,215.294,293.858,250.453,257.543,257.889z"/>
						<path style="fill:#433A61;" d="M192.543,264.677c0,0,11.161-13.956,11.838-13.379c0.677,0.577,11.449,9.566,11.449,9.566
							l-12.821,12.633L192.543,264.677z"/>
						<path style="opacity:0.79;fill:#433A61;" d="M192.543,264.677c0,0,11.161-13.956,11.838-13.379
							c0.677,0.577,11.449,9.566,11.449,9.566l-12.821,12.633L192.543,264.677z"/>
						<path style="fill:#433A61;" d="M189.902,260.811c3.457-0.472,6.609,0.683,8.946,2.582c2.337,1.9,9.112,7.667,8.669,10.615
							c-0.443,2.948-55.739,64.396-61.67,64.29s-13.684-12.008-14.36-14.381C130.811,321.545,186.445,261.283,189.902,260.811z"/>
					</g>
					<path style="opacity:0.53;fill:#FFFFFF;" d="M199.715,211.548c0,0-1.159-42.218,35.824-53.29
						c34.157-10.225,59.253,15.218,64.18,36.127c4.927,20.908-5.862,56.068-42.177,63.504
						C218.619,265.86,198.852,229.697,199.715,211.548z"/>
					<g style="opacity:0.58;">
						<path style="fill:#FFFFFF;" d="M199.725,210.184l91.708-33.057c-4.158-5.625-9.62-10.755-16.152-14.563l-71.324,25.979
							C200.375,198.145,199.804,206.92,199.725,210.184z"/>
						<path style="fill:#FFFFFF;" d="M299.72,194.385c-0.804-3.411-2.154-6.943-3.984-10.421l-95.763,32.749
							c0.596,4.512,2.155,9.607,4.66,14.666l95.984-31.398C300.431,198.033,300.137,196.155,299.72,194.385z"/>
					</g>
				</g>
				<path style="fill:#FAA485;" d="M204.488,283.194c0,0,2.294-4.577-2.507-6.646c-4.863-2.096-7.732-2.281-8.103-1.166
					c-0.2,0.603,0.856,1.576,1.87,2.348c-1.441-0.813-3.442-1.463-4.512,0.329c-1.79,2.999,1.119,13.963,5.09,13.318
					C200.297,290.732,204.488,283.194,204.488,283.194z"/>
			</g>
			<g>
				<path style="fill:#FAA485;" d="M123.031,296.107c0,0,10.204,15.491,18.531,15.379c8.327-0.112,13.704-3.218,13.704-3.218
					s-1.788-5.613,4.392-8.76c6.18-3.147,14.175,4.652,13.103,10.314c-1.047,5.529-6.358,8.091-13.109,6.8
					c0,0-12.803,14.406-28.226,9.8c-12.698-3.792-20.723-23.661-20.723-23.661L123.031,296.107z"/>
				<path style="opacity:0.23;fill:#F15657;" d="M128.54,303.144c-3.254-3.616-5.508-7.037-5.508-7.037l-12.329,6.654
					c0,0,1.386,3.425,3.911,7.701L128.54,303.144z"/>
				<path style="fill:#433A61;" d="M149.813,310.071c0,0,4.826,11.304,5.033,11.267c0.207-0.038,2.26-1.833,2.31-1.859
					c0.357-0.188-3.887-10.478-4.094-10.478S149.813,310.071,149.813,310.071z"/>
				<path style="opacity:0.69;fill:#433A61;" d="M149.813,310.071c0,0,4.826,11.304,5.033,11.267c0.207-0.038,2.26-1.833,2.31-1.859
					c0.357-0.188-3.887-10.478-4.094-10.478S149.813,310.071,149.813,310.071z"/>
				<path style="fill:#433A61;" d="M150.456,312.474c0.262-0.487,3.406-1.984,3.78-1.46c0.374,0.524,2.208,4.229,1.909,4.603
					c-0.299,0.374-3.106,1.684-3.63,1.572C151.99,317.077,150.194,312.96,150.456,312.474z"/>
				<path style="opacity:0.46;fill:#433A61;" d="M150.822,312.583c0.23-0.427,2.99-1.741,3.318-1.281
					c0.329,0.46,1.938,3.712,1.675,4.041c-0.263,0.329-2.727,1.478-3.187,1.38C152.169,316.624,150.592,313.01,150.822,312.583z"/>
				<path style="fill:#F15657;" d="M110.305,309.767c-2.417-3.928-5.944-15.271-6.175-17.793
					c-1.625-17.793,10.294-15.93,13.122-15.807c4.882,0.212,9.143,14.949,11.821,23.932L110.305,309.767z"/>
			</g>
		</g>
	</g>
	<g>
		<g>
			<path style="fill:#FFFFFF;" d="M356.57,39.419c1.714-5.141-0.428-10.282,18.422-11.995c18.85-1.714,162.795-2.999,167.079,3.427
				c4.284,6.426,4.284,14.566,4.284,22.706s3.856,151.657-0.857,160.225c-4.713,8.568-2.142,6.426-20.992,9.425
				c-18.85,2.999-159.368,1.714-166.651-4.284C350.572,212.924,354.857,44.56,356.57,39.419z"/>
			<path style="opacity:0.2;fill:#433A61;" d="M356.57,39.419c1.714-5.141-0.428-10.282,18.422-11.995
				c18.85-1.714,162.795-2.999,167.079,3.427c4.284,6.426,4.284,14.566,4.284,22.706s3.856,151.657-0.857,160.225
				c-4.713,8.568-2.142,6.426-20.992,9.425c-18.85,2.999-159.368,1.714-166.651-4.284C350.572,212.924,354.857,44.56,356.57,39.419z
				"/>
			<path style="fill:#433A61;" d="M546.47,60.398c-0.072-3.587-0.115-5.978-0.115-6.841c0-8.14,0-16.279-4.284-22.706
				c-4.284-6.426-148.229-5.141-167.079-3.427c-18.85,1.714-16.708,6.854-18.422,11.995c-0.36,1.079-0.832,9.345-1.288,21.787
				L546.47,60.398z"/>
			<path style="opacity:0.29;fill:#FFFFFF;" d="M546.47,60.398c-0.072-3.587-0.115-5.978-0.115-6.841c0-8.14,0-16.279-4.284-22.706
				c-4.284-6.426-148.229-5.141-167.079-3.427c-18.85,1.714-16.708,6.854-18.422,11.995c-0.36,1.079-0.832,9.345-1.288,21.787
				L546.47,60.398z"/>
			<path style="fill:#FFFFFF;" d="M505.458,41.185c6.923-0.198,7.516,10.483,0,9.692C497.942,50.086,499.523,41.355,505.458,41.185z
				"/>
			<path style="fill:#FFFFFF;" d="M518.71,40.79c6.923-0.198,7.516,10.483,0,9.692C511.194,49.69,512.775,40.959,518.71,40.79z"/>
			<path style="fill:#FFFFFF;" d="M532.555,40.592c6.923-0.198,7.516,10.483,0,9.692C525.039,49.492,526.621,40.761,532.555,40.592z
				"/>
		</g>
		<g>
			<g>
				<path style="fill:#433A61;" d="M517.498,145.941c0,0,6.87,32.944,5.623,44.797c0,0,17.664-4.042,17.314,7.395
					c-0.349,11.437-13.44,24.866-26.787,22.996c0,0-25.907,10.163-41.523,3.362l-51.385-4.955c0,0-22.399-45.44-6.617-86.397
					L517.498,145.941z"/>
				<path style="opacity:0.28;fill:#433A61;" d="M517.498,145.941c0,0,6.87,32.944,5.623,44.797c0,0,17.664-4.042,17.314,7.395
					c-0.349,11.437-13.44,24.866-26.787,22.996c0,0-25.907,10.163-41.523,3.362l-51.385-4.955c0,0-22.399-45.44-6.617-86.397
					L517.498,145.941z"/>
			</g>
			<g>
				<path style="fill:#FAA485;" d="M446.904,183.872c0,0-12.626,5.542-26.907,19.508l-30.634-0.875l0.587,10.628
					c0,0,29.82,4.669,36.047,3.609c6.227-1.06,22.032-17.502,22.032-17.502L446.904,183.872z"/>
				<path style="fill:#FFFFFF;" d="M447.009,180.825c7.569,6.244,4.357,16.46,0.337,20.448c-4.02,3.988-12.433,13.84-12.433,13.84
					l-12.931-16.344C421.982,198.769,441.223,176.052,447.009,180.825z"/>
				<path style="opacity:0.2;fill:#433A61;" d="M447.009,180.825c7.569,6.244,4.357,16.46,0.337,20.448
					c-4.02,3.988-12.433,13.84-12.433,13.84l-12.931-16.344C421.982,198.769,441.223,176.052,447.009,180.825z"/>
				<path style="fill:#FFFFFF;" d="M472.481,176.385c-6.624-1.885-22.418-3.287-29.143,4.429c-5.054,5.798-5.126,31.04-4.85,43.231
					c15.956,0.039,32.2-0.105,46.813-0.398C485.348,211.659,484.346,179.762,472.481,176.385z"/>
				<g>
					<path style="opacity:0.09;fill:#433A61;" d="M441.894,224.05c14.852,0.012,29.833-0.129,43.407-0.401
						c0.022-5.688-0.194-15.854-1.692-25.331C472.355,220.051,452.992,223.83,441.894,224.05z"/>
					<path style="opacity:0.2;fill:#433A61;" d="M438.488,224.046c0.372,0.001,0.746,0,1.119,0.001
						c-0.388-0.009-0.763-0.021-1.12-0.037C438.488,224.022,438.488,224.035,438.488,224.046z"/>
				</g>
				<path style="fill:#FAA485;" d="M457.951,189.721c5.218,0.199,11.402-5.712,11.585-10.512c0.183-4.8-3.899-8.853-9.116-9.052
					c-5.218-0.199-9.595,3.531-9.779,8.331C450.459,183.289,452.734,189.522,457.951,189.721z"/>
				<path style="opacity:0.23;fill:#F15657;" d="M457.951,189.721c5.218,0.199,11.402-5.712,11.585-10.512
					c0.183-4.8-3.899-8.853-9.116-9.052c-5.218-0.199-9.595,3.531-9.779,8.331C450.459,183.289,452.734,189.522,457.951,189.721z"/>
				<polygon style="opacity:0.5;fill:#F15657;" points="460.88,174.594 461.42,182.599 456.247,182.357 456.24,173.818 				"/>
			</g>
			<g>
				<path style="fill:#FAA485;" d="M515.182,142.769c-0.449,8.68-7.262,15.383-15.219,14.972
					c-7.957-0.411-14.043-7.781-13.595-16.461c0.448-8.68,7.262-15.383,15.219-14.972
					C509.544,126.719,515.631,134.089,515.182,142.769z"/>
				<path style="opacity:0.5;fill:#F15657;" d="M512.235,142.414c-0.264,5.118-4.282,9.07-8.973,8.828
					c-4.692-0.242-8.28-4.587-8.016-9.705c0.265-5.118,4.282-9.071,8.974-8.828C508.911,132.951,512.499,137.296,512.235,142.414z"
					/>
				<g>
					<path style="fill:#FAA485;" d="M464.033,95.117l-16.471-0.851c-21.198-1.095-39.27,15.201-40.365,36.4l-0.328,6.336
						c-1.095,21.198,15.201,39.27,36.4,40.366l16.471,0.851c21.198,1.095,39.27-15.201,40.365-36.399l0.327-6.336
						C501.528,114.284,485.232,96.212,464.033,95.117z"/>
				</g>
				<path style="opacity:0.23;fill:#F15657;" d="M435.791,92.265c0,0,3.399,16.712,7.381,18.948
					c3.982,2.236,54.807,21.159,56.076,19.723c1.269-1.435-0.408-43.327-0.408-43.327l-28.732-7.746l-35.627,12.752"/>
				<path style="fill:#433A61;" d="M438.325,95.387c0,0,1.811,11.659,6.473,16.17l22.617,0.283c0,0-2.902-16.993-1.876-14.389
					c1.026,2.605,8.358,17.602,8.358,17.602l11.704,6.646l2.094-12.16l1.269,17.348l10.576,5.397c0,0,1.721-3.474,7.957-2.921
					c6.236,0.553,9.263,13.78,5.757,19.737c-3.507,5.957-6.075,9.9-16.608,7.124c0,0-7.123,13.246-17.394,17.688
					c0,0,35.706-10.218,46.449-27.686c10.643-17.306-0.031-73.543-38.48-76.749l-20.047,4.433c0,0-10.585-7.056-18.978-6.743
					c-21.868,0.813-46.846,32.982-49.289,43.837c-2.443,10.855,1.527,13.084,1.527,13.084s-4.698,13.186-2.657,17.74
					c2.041,4.554,10.619,8.018,10.619,8.018S397.888,107.524,438.325,95.387z"/>
				<path style="opacity:0.28;fill:#433A61;" d="M438.325,95.387c0,0,1.811,11.659,6.473,16.17l22.617,0.283
					c0,0-2.902-16.993-1.876-14.389c1.026,2.605,8.358,17.602,8.358,17.602l11.704,6.646l2.094-12.16l1.269,17.348l10.576,5.397
					c0,0,1.721-3.474,7.957-2.921c6.236,0.553,9.263,13.78,5.757,19.737c-3.507,5.957-6.075,9.9-16.608,7.124
					c0,0-7.123,13.246-17.394,17.688c0,0,35.706-10.218,46.449-27.686c10.643-17.306-0.031-73.543-38.48-76.749l-20.047,4.433
					c0,0-10.585-7.056-18.978-6.743c-21.868,0.813-46.846,32.982-49.289,43.837c-2.443,10.855,1.527,13.084,1.527,13.084
					s-4.698,13.186-2.657,17.74c2.041,4.554,10.619,8.018,10.619,8.018S397.888,107.524,438.325,95.387z"/>
				<g>
					<path style="fill:#433A61;" d="M440.995,147.099c7.162-1.514,8.141,3.875,11.001,3.001c2.86-0.874,5.648-5.777,10.086-3.146
						c4.437,2.631,4.876,18.572-14.492,17.264C434.038,163.303,433.833,148.613,440.995,147.099z"/>
					<path style="opacity:0.61;fill:#433A61;" d="M440.995,147.099c7.162-1.514,8.141,3.875,11.001,3.001
						c2.86-0.874,5.648-5.777,10.086-3.146c4.437,2.631,4.876,18.572-14.492,17.264
						C434.038,163.303,433.833,148.613,440.995,147.099z"/>
					<path style="fill:#F15657;" d="M464.57,152.185c-2.045-0.34-4.213-0.385-6.432-0.054c-7.22,1.074-12.863,5.656-14.709,11.255
						c1.218,0.431,2.597,0.727,4.161,0.833C461.072,165.128,464.952,157.683,464.57,152.185z"/>
					<path style="fill:#FFFFFF;" d="M438.539,148.352c2.053,4.714,7.758,7.615,13.934,6.696c4.867-0.724,8.763-3.633,10.488-7.332
						c-0.27-0.312-0.563-0.574-0.88-0.762c-4.437-2.631-7.225,2.271-10.086,3.146c-2.86,0.874-3.838-4.515-11.001-3.001
						C440.039,147.301,439.218,147.744,438.539,148.352z"/>
				</g>
				<g>
					<g>
						<path style="fill:#433A61;" d="M476.578,117.804c-0.549-1.241-1.054-2.445-1.927-3.504c-0.798-0.967-2.009-1.761-3.247-2.005
							c-1.352-0.266-2.735,0.292-3.885,0.993c-1.151,0.702-2.075,1.688-2.971,2.681c-0.799,0.884,0.523,2.204,1.309,1.309
							c0.691-0.787,1.392-1.632,2.262-2.229c0.396-0.272,0.9-0.606,1.385-0.66c0.461-0.051,1.016,0.007,1.47,0.096
							c1.97,0.387,3.277,2.539,4.228,4.122C475.743,119.508,476.985,118.722,476.578,117.804L476.578,117.804z"/>
					</g>
				</g>
				<path style="opacity:0.23;fill:#F15657;" d="M487.947,154.413c0.33,3.625-3.266,6.915-8.03,7.349
					c-4.765,0.434-8.895-2.154-9.224-5.779c-0.33-3.626,3.265-6.916,8.03-7.349C483.487,148.2,487.617,150.787,487.947,154.413z"/>
				<path style="opacity:0.15;fill:#FFFFFF;" d="M428.192,84.98c1.738,2.161-10.793,13.057-12.977,10.732
					C413.03,93.386,426.454,82.818,428.192,84.98z"/>
				<path style="opacity:0.15;fill:#FFFFFF;" d="M429.362,90.886c2.039,2.171-7.118,11.065-8.73,9.66
					C419.021,99.141,427.323,88.715,429.362,90.886z"/>
				<path style="opacity:0.15;fill:#FFFFFF;" d="M502.735,92.734c8.312,1.643,10.981,13.067,7.376,15.082
					C506.505,109.831,494.423,91.091,502.735,92.734z"/>
				<path style="opacity:0.15;fill:#FFFFFF;" d="M494.559,98.019c3.299-0.137,8.979,8.788,5.856,10.208
					C497.292,109.646,491.259,98.156,494.559,98.019z"/>
				<g>
					<g>
						<path style="fill:#433A61;" d="M442.122,116.909c-1.095-2.081-2.674-4.904-5.257-5.257c-2.804-0.383-4.6,1.967-6.402,3.678
							c-1.03,0.978,0.529,2.534,1.558,1.558c1.164-1.105,2.658-3.348,4.542-3.002c0.821,0.151,1.455,0.918,2.003,1.486
							c0.732,0.758,1.477,1.536,2.099,2.389C441.295,118.625,442.638,117.889,442.122,116.909L442.122,116.909z"/>
					</g>
				</g>
				<g>
					<g>
						<path style="fill:#433A61;" d="M451.604,139.218c-0.405,0.745-0.846,1.482-1.216,2.245c0.286,0,0.572,0,0.858,0
							c-0.342-0.447-0.688-0.899-1.075-1.309c-0.183-0.195-0.371-0.385-0.559-0.574c-0.095-0.095-0.192-0.187-0.281-0.287
							c-0.079-0.088-0.193-0.183-0.236-0.294c-0.065-0.164-0.193-0.29-0.381-0.29c-0.173,0-0.336,0.123-0.381,0.29
							c-0.089,0.332-0.118,0.69-0.162,1.03c-0.04,0.308-0.062,0.618-0.078,0.929c-0.017,0.31-0.026,0.62-0.03,0.931
							c-0.003,0.346-0.052,0.759,0.12,1.07c0.141,0.256,0.591,0.29,0.722,0c0.143-0.315,0.091-0.66,0.087-0.998
							c-0.004-0.322,0-0.645,0.011-0.967c0.011-0.31,0.032-0.619,0.046-0.929c0.015-0.319,0.06-0.642,0.061-0.961
							c-0.198,0.114-0.396,0.227-0.594,0.341c0.221,0.105,0.381,0.339,0.526,0.534c0.158,0.214,0.31,0.432,0.459,0.652
							c0.299,0.443,0.606,0.88,0.889,1.334c0.198,0.317,0.662,0.325,0.858,0c0.438-0.726,0.817-1.496,1.222-2.241
							c0.129-0.237,0.059-0.545-0.179-0.684C452.06,138.905,451.733,138.98,451.604,139.218L451.604,139.218z"/>
					</g>
				</g>
				<path style="opacity:0.23;fill:#F15657;" d="M431.317,152.437c-0.283,3.629-4.38,6.27-9.15,5.898
					c-4.77-0.372-8.407-3.617-8.123-7.246c0.283-3.629,4.379-6.27,9.149-5.897C427.964,145.564,431.6,148.808,431.317,152.437z"/>
				<g>
					<path style="fill:#FFFFFF;" d="M435.804,145.418L435.804,145.418c5.313,0.182,9.768-3.978,9.95-9.291l0.175-5.093
						c0.182-5.313-3.978-9.768-9.291-9.95l0,0c-5.313-0.182-9.768,3.978-9.95,9.291l-0.174,5.093
						C426.331,140.781,430.491,145.236,435.804,145.418z"/>
					<path style="fill:#433A61;" d="M431.713,122.256c0.023,0.001,0.046-0.002,0.07-0.001c4.688,0.161,8.328,4.978,8.13,10.76
						c-0.198,5.782-4.159,10.339-8.847,10.178c-0.425-0.015-0.839-0.08-1.245-0.169c-0.087-0.061-0.164-0.134-0.25-0.197
						c-1.962-1.833-3.157-4.466-3.058-7.36l0.174-5.093C426.809,126.844,428.822,123.832,431.713,122.256z"/>
				</g>
				<g>
					<path style="fill:#FFFFFF;" d="M468.784,146.793L468.784,146.793c5.314,0.156,9.748-4.026,9.904-9.34l0.149-5.094
						c0.156-5.314-4.026-9.748-9.34-9.904l0,0c-5.314-0.156-9.748,4.026-9.904,9.34l-0.149,5.094
						C459.288,142.203,463.47,146.637,468.784,146.793z"/>
					<path style="fill:#433A61;" d="M459.593,131.795c0.084-2.875,1.427-5.412,3.479-7.116c0.768-0.253,1.573-0.383,2.405-0.359
						c4.688,0.137,8.352,4.937,8.183,10.72c-0.169,5.783-4.108,10.359-8.797,10.222c-0.425-0.012-0.839-0.076-1.245-0.162
						c-2.601-1.791-4.274-4.818-4.174-8.21L459.593,131.795z"/>
				</g>
				<path style="fill:#FFFFFF;" d="M501.615,153.429c0,0,1.139-3.314,1.852-2.98c0.713,0.334,1.625,3.26,1.625,3.26
					s4.248,0.12,3.892,1.018c-0.356,0.898-2.576,2.206-2.576,2.206s1.247,3.279,0.076,3.644c-1.171,0.365-3.085-1.488-3.085-1.488
					s-2.384,2.166-3.177,1.447c-0.793-0.719,0.386-3.841,0.386-3.841s-3.337-2.019-2.672-2.881
					C498.6,152.952,501.615,153.429,501.615,153.429z"/>
			</g>
			<g>
				<polygon style="fill:#F15657;" points="362.164,151.054 345.116,156.151 356.549,107.667 394.253,139.602 379.025,145.142 
					405.913,191.402 445.712,162.554 499.149,243.812 469.338,241.172 441.563,198.55 396.217,226.432 				"/>
				<g>
					<path style="fill:#FAA485;" d="M383.468,199.017c2.177-1.461,8.484,3.066,8.487,4.716c0.003,1.65-2.987-0.03-2.987-0.03
						s4.268,2.292,3.033,5.293c-1.234,3.001-3.478,7.136-6.24,5.239C383.001,212.337,381.291,200.479,383.468,199.017z"/>
				</g>
			</g>
			<g>
				<g>
					<g>
						<g>
							<path style="fill:#FAA485;" d="M473.396,189.295c-2.647,9.345-13.107,30.125-13.107,30.125l5.483,8.906
								c0,0,12.923-4.366,21.443-34.973c0.973-3.495-0.696-7.18-4.019-8.636l0,0C479.217,182.973,474.581,185.114,473.396,189.295z"
								/>
							<g>
								<g>
									<g>
										<path style="fill:#FAA485;" d="M469.379,216.122c-0.28-0.03-0.55-0.072-0.797-0.14
											c-6.678-1.82-20.208-11.481-20.208-11.481s2.728-6.762,0.485-9.748c0.146-2.188-0.442-6.199-1.932-4.913
											c-0.782,0.675-0.508,2.822-1.254,3.695c-0.557,0.052-1.892-0.267-2.486-0.158c-1.591-2.929-4.201-7.259-5.102-5.977
											c-1.331,1.891,1.602,6.541,1.602,6.541s-3.394-8.238-5.497-4.996c-1.706,2.631-0.474,8.07,1.118,9.552
											c-0.05,0.063-0.092,0.127-0.137,0.19c-2.5-3.683-3.102-3.981-2.931-1.507c0.065,0.932,0.531,2.654,2.33,3.885
											c0.167,0.65,0.909,2.469,1.677,3.159c2.964,2.663,7.223,4.171,7.223,4.171s11.037,19.009,22.64,19.977L469.379,216.122z"
											/>
									</g>
								</g>
							</g>
							<path style="fill:#433A61;" d="M450.63,204.537c0.32,0.04,0.875,0.487,0.875,0.487s-6.34,8.314-6.569,8.227
								c-0.229-0.088-1.111-0.985-1.111-0.985S450.31,204.497,450.63,204.537z"/>
							<path style="fill:#433A61;" d="M445.812,213.876c0,0,6.11-8.402,6.475-8.408c0.365-0.006,0.965,0.44,0.965,0.44
								s-5.961,9.129-6.42,9C446.374,214.778,445.812,213.876,445.812,213.876z"/>
							<path style="opacity:0.23;fill:#F15657;" d="M483.197,184.717c-2.657-1.164-5.601-0.59-7.621,1.159
								c-0.809,0.818-1.433,1.846-1.772,3.044c-0.376,1.326-0.97,2.716-1.65,4.129c-1.136,3.108-2.676,6.758-4.271,10.34
								l13.969,5.038c1.87-4.137,3.701-9.1,5.364-15.074c0.345-1.24,0.352-2.501,0.076-3.681c-0.458-1.342-1.156-2.598-2.135-3.671
								C484.591,185.482,483.938,185.042,483.197,184.717z"/>
						</g>
					</g>
				</g>
				<path style="fill:#FFFFFF;" d="M477.317,181.274c9.811,0.113,11.662,8.179,11.033,13.807c-0.628,5.628-2.945,13.09-2.945,13.09
					l-18.328-7.023C467.077,201.147,469.816,181.187,477.317,181.274z"/>
			</g>
		</g>
	</g>
	<g>
		<g>
			<path style="fill:#FFFFFF;" d="M357.778,282.517c1.714-5.141-0.428-10.282,18.422-11.995
				c18.85-1.714,162.795-2.999,167.079,3.427c4.284,6.426,4.284,14.566,4.284,22.706c0,8.14,3.856,151.657-0.857,160.225
				c-4.712,8.568-2.142,6.426-20.992,9.425c-18.85,2.999-159.368,1.714-166.651-4.284
				C351.781,456.022,356.065,287.658,357.778,282.517z"/>
			<path style="opacity:0.2;fill:#433A61;" d="M357.778,282.517c1.714-5.141-0.428-10.282,18.422-11.995
				c18.85-1.714,162.795-2.999,167.079,3.427c4.284,6.426,4.284,14.566,4.284,22.706c0,8.14,3.856,151.657-0.857,160.225
				c-4.712,8.568-2.142,6.426-20.992,9.425c-18.85,2.999-159.368,1.714-166.651-4.284
				C351.781,456.022,356.065,287.658,357.778,282.517z"/>
			<path style="fill:#433A61;" d="M547.679,303.495c-0.072-3.587-0.115-5.978-0.115-6.841c0-8.14,0-16.28-4.284-22.706
				c-4.284-6.426-148.229-5.141-167.079-3.427c-18.85,1.714-16.708,6.854-18.422,11.995c-0.36,1.079-0.832,9.345-1.288,21.787
				L547.679,303.495z"/>
			<path style="opacity:0.58;fill:#FFFFFF;" d="M547.679,303.495c-0.072-3.587-0.115-5.978-0.115-6.841c0-8.14,0-16.28-4.284-22.706
				c-4.284-6.426-148.229-5.141-167.079-3.427c-18.85,1.714-16.708,6.854-18.422,11.995c-0.36,1.079-0.832,9.345-1.288,21.787
				L547.679,303.495z"/>
			<path style="fill:#FFFFFF;" d="M506.666,284.283c6.923-0.198,7.516,10.483,0,9.692
				C499.15,293.183,500.731,284.452,506.666,284.283z"/>
			<path style="fill:#FFFFFF;" d="M519.918,283.887c6.923-0.198,7.516,10.483,0,9.692
				C512.402,292.788,513.983,284.057,519.918,283.887z"/>
			<path style="fill:#FFFFFF;" d="M533.764,283.689c6.923-0.198,7.516,10.483,0,9.692
				C526.247,292.59,527.829,283.859,533.764,283.689z"/>
		</g>
		<g>
			<g>
				<path style="fill:#FAA485;" d="M457.856,421.549c0,0-12.765,5.292-28.098,19.798l-24.607,2.139
					c-0.94-0.636-2.765-1.628-5.083-1.628c-3.395,0-5.882-1.26-6.043,0.518c-0.138,1.512,2.542,1.902,3.042,1.929
					c-1.024-0.04-4.895,0-7.249,1.067c-2.08,0.943-6.496,7.531,15.206,9.259c0,0,23.572,2.292,30.169,1.281
					c6.598-1.012,23.582-18.107,23.582-18.107L457.856,421.549z"/>
				<g>
					<path style="fill:#433A61;" d="M406.747,454.792c0.803,0.073,1.85,0.165,3.079,0.269l-0.151-11.967l-3.009,0.262
						L406.747,454.792z"/>
					<path style="fill:#FFFFFF;" d="M406.483,447.244c0.146-0.102,3.352-0.293,3.396-0.117c0.044,0.176,0.117,2.035,0.029,2.035
						c-0.088,0-0.249,0-0.249,0s-0.029-1.332-0.088-1.391c-0.059-0.059-2.781,0.059-2.781,0.059s0.044,1.376-0.044,1.376
						c-0.088,0-0.293-0.029-0.293-0.029S406.337,447.346,406.483,447.244z"/>
				</g>
				<path style="opacity:0.23;fill:#F15657;" d="M441.231,452.948c4.658-3.152,10.166-8.097,13.754-11.475l-7.291-13.087
					l-1.542-0.191c-4.102,2.741-9.015,6.427-14.304,11.223L441.231,452.948z"/>
				<path style="fill:#433A61;" d="M455.85,420.676c7.888,6.729,4.317,17.466,0,21.609c-4.317,4.143-10.082,10.585-10.082,10.585
					l-13.377-17.493C432.391,435.377,449.82,415.532,455.85,420.676z"/>
				<path style="opacity:0.49;fill:#433A61;" d="M455.85,420.676c7.888,6.729,4.317,17.466,0,21.609
					c-4.317,4.143-10.082,10.585-10.082,10.585l-13.377-17.493C432.391,435.377,449.82,415.532,455.85,420.676z"/>
				<path style="fill:#FFFFFF;" d="M480.899,417.237c-6.966-2.107-23.628-3.863-30.867,4.172c-5.44,6.038-5.956,32.705-5.876,45.59
					c16.857,0.319,34.022,0.45,49.465,0.395C493.879,454.728,493.375,421.01,480.899,417.237z"/>
				<path style="opacity:0.06;fill:#433A61;" d="M480.899,417.237c-6.966-2.107-23.628-3.863-30.867,4.172
					c-5.44,6.038-5.956,32.705-5.876,45.59c16.857,0.319,34.022,0.45,49.465,0.395C493.879,454.728,493.375,421.01,480.899,417.237z
					"/>
				<path style="opacity:0.11;fill:#433A61;" d="M481.729,462.298c-6.602,5.124-26.57,2.615-37.577,0.734
					c-0.007,1.425-0.004,2.757,0.003,3.967c16.857,0.319,34.022,0.45,49.465,0.395c0.113-5.527,0.08-15.063-1.029-24.37
					C491.692,447.118,488.902,456.731,481.729,462.298z"/>
				<path style="fill:#433A61;" d="M460.538,438.596c0,0.259,0,9.928-0.691,10.618c-0.691,0.691-7.683,3.108-7.683,3.108
					l-4.316-3.108l0.691-10.877C448.539,438.337,460.538,438.337,460.538,438.596z"/>
				<path style="fill:#433A61;" d="M466.954,428.293c6.205,0.339,13.585-4.83,13.822-9.175c0.037-0.68-0.063-1.344-0.26-1.986
					c-4.986-1.431-14.331-2.611-21.969-0.542c-0.126,0.421-0.215,0.853-0.24,1.3C458.07,422.236,460.75,427.954,466.954,428.293z"/>
				<path style="fill:#FAA485;" d="M467.293,426.313c5.509,0.301,12.061-4.288,12.272-8.146c0.211-3.858-4.085-7.23-9.593-7.531
					c-5.509-0.301-10.146,2.583-10.357,6.44C459.404,420.935,461.784,426.012,467.293,426.313z"/>
				<path style="opacity:0.23;fill:#F15657;" d="M467.293,426.313c5.509,0.301,12.061-4.288,12.272-8.146
					c0.211-3.858-4.085-7.23-9.593-7.531c-5.509-0.301-10.146,2.583-10.357,6.44C459.404,420.935,461.784,426.012,467.293,426.313z"
					/>
				<path style="opacity:0.5;fill:#F15657;" d="M470.419,415.688l0.385,7.567c0.014,0.281-0.22,0.512-0.501,0.494l-4.485-0.284
					c-0.251-0.016-0.445-0.226-0.441-0.478l0.126-8.015c0.005-0.291,0.27-0.509,0.557-0.456l3.974,0.732
					C470.248,415.288,470.408,415.469,470.419,415.688z"/>
			</g>
			<g>
				<path style="fill:#FAA485;" d="M532.349,392.046c-1.998,8.964-10.28,14.746-18.496,12.914
					c-8.217-1.832-13.258-10.583-11.26-19.548c1.998-8.964,10.28-14.746,18.497-12.914
					C529.306,374.33,534.347,383.082,532.349,392.046z"/>
				<path style="opacity:0.5;fill:#F15657;" d="M529.341,391.156c-1.178,5.285-6.061,8.694-10.906,7.614
					c-4.845-1.08-7.818-6.24-6.639-11.525c1.178-5.286,6.061-8.695,10.906-7.614C527.547,380.71,530.519,385.871,529.341,391.156z"
					/>
				<g>
					<path style="fill:#FAA485;" d="M487.466,333.378l-17.01-3.792c-21.892-4.88-43.594,8.91-48.475,30.802l-1.459,6.544
						c-4.88,21.892,8.91,43.594,30.802,48.475l17.01,3.792c21.892,4.88,43.594-8.91,48.475-30.802l1.458-6.544
						C523.148,359.961,509.358,338.258,487.466,333.378z"/>
				</g>
				<g>
					<path style="opacity:0.23;fill:#F15657;" d="M429.669,344.145c-1.639,2.086-3.083,4.348-4.302,6.764
						c6.91,1.07,23.633,2.875,34.868-2.43c13.576-6.411,23.613-13.883,39.192-10.346c-3.617-2.155-7.626-3.79-11.96-4.756
						l-17.01-3.792c-9.771-2.178-19.499-0.629-27.716,3.692L429.669,344.145z"/>
					<path style="opacity:0.23;fill:#F15657;" d="M517.503,385.284l0.765-3.431c3.652-16.383-3.153-32.658-15.984-41.858
						C500.626,346.551,492.668,382.629,517.503,385.284z"/>
				</g>
				<path style="fill:#433A61;" d="M466.457,342.969c11.281-6.267,12.389-10.289,27.431-7.155l10.173,5.901
					c0,0-7.655,41.118,13.653,41.879c0,0,18.308-7.676,14.227,8.922c-3.976,16.171-22.257,10.837-22.257,10.837
					s-9.03,13.21-27.539,16.568c0,0,13.5,0.961,16.925-2.464c0,0,11.795,6.849,17.503,2.664c5.707-4.186,6.088-6.469,6.088-6.469
					s9.893,3.424,13.317,1.142c3.424-2.283,6.088-7.61,6.088-7.61l-8.751-0.761c0,0,10.654-7.61,11.795-12.176
					c1.141-4.566-4.185-12.937-4.185-12.937s7.61-8.371,6.468-16.361c-1.141-7.99-13.599-12.712-13.599-12.712
					s-0.859-20.391-6.186-27.621c-5.327-7.229-23.591-3.044-23.591-3.044s-4.946-17.883-13.698-21.688
					c-8.751-3.805-35.766-1.902-44.137,9.893c0,0-6.849-4.946-10.654-3.424c-3.805,1.522-5.327,17.883-5.327,17.883
					s-9.132-11.795-11.795-9.512c-2.664,2.283-6.746,27.546,0.432,32.417l-7.281-8.827c0,0-1.852,24.889,8.967,28.616
					c0,0,3.589-13.396,7.014-19.103C427.537,347.828,455.175,349.237,466.457,342.969z"/>
				<g>
					<path style="fill:#433A61;" d="M454.294,383.471c7.729-0.314,7.798,5.473,10.932,5.067c3.134-0.406,6.903-5.022,11.062-1.498
						c4.159,3.524,1.805,20.209-18.143,15.43C444.188,399.125,446.565,383.785,454.294,383.471z"/>
					<path style="opacity:0.61;fill:#433A61;" d="M454.294,383.471c7.729-0.314,7.798,5.473,10.932,5.067
						c3.134-0.406,6.903-5.022,11.062-1.498c4.159,3.524,1.805,20.209-18.143,15.43
						C444.188,399.125,446.565,383.785,454.294,383.471z"/>
					<path style="fill:#F15657;" d="M477.959,392.928c-2.07-0.715-4.321-1.144-6.692-1.191c-7.712-0.155-14.399,3.624-17.31,9.131
						c1.193,0.664,2.577,1.216,4.188,1.602C472.031,405.796,477.386,398.723,477.959,392.928z"/>
					<path style="fill:#FFFFFF;" d="M451.515,384.343c1.307,5.274,6.74,9.302,13.336,9.434c5.198,0.104,9.771-2.239,12.22-5.789
						c-0.226-0.373-0.486-0.697-0.782-0.949c-4.159-3.524-7.928,1.092-11.063,1.498c-3.134,0.406-3.202-5.381-10.932-5.067
						C453.263,383.513,452.33,383.829,451.515,384.343z"/>
				</g>
				<g>
					<g>
						<path style="fill:#433A61;" d="M496.514,359.312c-0.358-1.388-0.671-2.783-1.409-4.033c-0.684-1.157-1.755-2.126-3.001-2.634
							c-0.689-0.281-1.367-0.35-2.1-0.226c-0.651,0.11-1.336,0.264-1.954,0.502c-1.431,0.552-2.624,1.473-3.816,2.415
							c-0.393,0.31-0.325,0.985,0,1.309c0.384,0.384,0.92,0.316,1.309,0c0.902-0.732,1.838-1.511,2.923-1.956
							c0.437-0.179,0.977-0.386,1.449-0.307c0.485,0.081,1.02,0.181,1.477,0.368c1.919,0.786,2.891,3.198,3.583,4.985
							C495.34,360.673,496.776,360.328,496.514,359.312L496.514,359.312z"/>
					</g>
				</g>
				<path style="opacity:0.23;fill:#F15657;" d="M501.92,399.372c-0.296,3.835-4.622,6.629-9.662,6.24
					c-5.041-0.389-8.887-3.813-8.591-7.648c0.296-3.835,4.622-6.629,9.662-6.24C498.37,392.112,502.216,395.537,501.92,399.372z"/>
				<path style="opacity:0.15;fill:#FFFFFF;" d="M467.243,301.165c1.43,2.558-13.547,11.7-15.413,8.892
					C449.964,307.248,465.813,298.606,467.243,301.165z"/>
				<path style="opacity:0.15;fill:#FFFFFF;" d="M467.42,307.524c1.742,2.621-9.368,10.273-10.799,8.525
					C455.19,314.301,465.679,304.903,467.42,307.524z"/>
				<path style="opacity:0.15;fill:#FFFFFF;" d="M521.754,342.292c7.845,4.314,6.878,16.672,2.602,17.548
					C520.081,360.717,513.91,337.979,521.754,342.292z"/>
				<path style="opacity:0.15;fill:#FFFFFF;" d="M511.83,344.999c3.367,0.917,6.231,11.723,2.632,12.153
					C510.862,357.582,508.463,344.082,511.83,344.999z"/>
				<g>
					<g>
						<path style="fill:#433A61;" d="M460.773,352.307c-0.784-2.362-1.899-5.517-4.488-6.422c-2.78-0.971-5.126,1.206-7.241,2.628
							c-0.493,0.331-0.709,0.971-0.395,1.507c0.286,0.489,1.011,0.729,1.507,0.395c1.446-0.972,3.495-3.143,5.448-2.369
							c0.789,0.313,1.299,1.153,1.754,1.822c0.675,0.993,1.341,2.011,1.873,3.089C459.652,353.81,461.075,353.215,460.773,352.307
							L460.773,352.307z"/>
					</g>
				</g>
				<g>
					<g>
						<path style="fill:#433A61;" d="M466.789,377.117c-0.581,0.739-1.189,1.464-1.741,2.224c0.286,0,0.572,0,0.858,0
							c-0.267-0.51-0.544-1.02-0.862-1.5c-0.16-0.241-0.325-0.479-0.492-0.716c-0.156-0.221-0.363-0.463-0.424-0.729
							c-0.072-0.31-0.582-0.409-0.722-0.094c-0.278,0.627-0.449,1.316-0.599,1.983c-0.073,0.327-0.14,0.655-0.198,0.985
							c-0.061,0.342-0.194,0.77-0.086,1.109c0.111,0.347,0.568,0.407,0.764,0.1c0.173-0.271,0.167-0.652,0.217-0.962
							c0.053-0.331,0.114-0.661,0.182-0.989c0.133-0.642,0.324-1.277,0.442-1.921c-0.193,0.079-0.387,0.157-0.58,0.236
							c0.192,0.141,0.318,0.458,0.425,0.667c0.126,0.246,0.246,0.496,0.362,0.747c0.225,0.488,0.459,0.971,0.665,1.467
							c0.069,0.166,0.164,0.297,0.347,0.347c0.16,0.044,0.371,0.004,0.483-0.128c0.58-0.684,1.114-1.414,1.668-2.119
							c0.167-0.212,0.207-0.5,0-0.707C467.323,376.943,466.957,376.903,466.789,377.117L466.789,377.117z"/>
					</g>
				</g>
				<path style="opacity:0.23;fill:#F15657;" d="M443.27,387.325c-0.935,3.731-5.669,5.759-10.573,4.53
					c-4.903-1.229-8.121-5.251-7.185-8.982c0.935-3.731,5.669-5.759,10.572-4.53C440.989,379.572,444.205,383.594,443.27,387.325z"
					/>
				<g>
					<path style="fill:#FFFFFF;" d="M449.183,380.803L449.183,380.803c5.503,1.127,10.878-2.421,12.005-7.924l1.08-5.275
						c1.127-5.503-2.421-10.878-7.924-12.005l0,0c-5.503-1.127-10.878,2.421-12.005,7.924l-1.08,5.276
						C440.132,374.301,443.679,379.676,449.183,380.803z"/>
					<path style="fill:#433A61;" d="M449.007,355.951c0.024,0.005,0.048,0.006,0.073,0.011c4.855,0.994,7.798,6.655,6.572,12.644
						c-1.227,5.989-6.157,10.038-11.013,9.044c-0.44-0.09-0.859-0.231-1.267-0.395c-0.08-0.079-0.148-0.169-0.225-0.25
						c-1.721-2.256-2.501-5.21-1.888-8.207l1.08-5.276C443.088,359.866,445.716,357.083,449.007,355.951z"/>
				</g>
				<g>
					<path style="fill:#FFFFFF;" d="M483.3,388.053L483.3,388.053c5.509,1.1,10.866-2.475,11.965-7.983l1.054-5.281
						c1.1-5.509-2.475-10.866-7.984-11.965l0,0c-5.509-1.1-10.866,2.475-11.966,7.984l-1.054,5.281
						C474.216,381.597,477.791,386.954,483.3,388.053z"/>
					<path style="fill:#433A61;" d="M476.37,370.807c0.595-2.981,2.442-5.386,4.88-6.8c0.844-0.128,1.707-0.121,2.569,0.051
						c4.86,0.97,7.831,6.617,6.634,12.611c-1.197,5.995-6.107,10.068-10.968,9.098c-0.441-0.088-0.861-0.227-1.269-0.389
						c-2.394-2.325-3.603-5.774-2.901-9.29L476.37,370.807z"/>
				</g>
				<g>
					
						<line style="fill:none;stroke:#433A61;stroke-width:2;stroke-miterlimit:10;" x1="429.572" y1="354.708" x2="424.053" y2="353.328"/>
					
						<line style="opacity:0.73;fill:none;stroke:#433A61;stroke-width:2;stroke-miterlimit:10;" x1="429.572" y1="354.708" x2="424.053" y2="353.328"/>
					
						<line style="fill:none;stroke:#433A61;stroke-width:2;stroke-miterlimit:10;" x1="507.95" y1="381.049" x2="519.818" y2="383.615"/>
					
						<line style="opacity:0.73;fill:none;stroke:#433A61;stroke-width:2;stroke-miterlimit:10;" x1="507.95" y1="381.049" x2="519.818" y2="383.615"/>
					<path style="fill:none;stroke:#433A61;stroke-width:2;stroke-miterlimit:10;" d="M465.403,371.331c0,0,2.547-0.904,4.601,1.643
						"/>
					<path style="opacity:0.73;fill:none;stroke:#433A61;stroke-width:2;stroke-miterlimit:10;" d="M465.403,371.331
						c0,0,2.547-0.904,4.601,1.643"/>
					<g>
						<path style="fill:none;stroke:#433A61;stroke-width:2;stroke-miterlimit:10;" d="M451.753,345.325
							c26.365,7.285,14.801,44.645-11.195,36.2C419.431,374.663,425.387,338.04,451.753,345.325z"/>
						<path style="opacity:0.43;fill:none;stroke:#433A61;stroke-width:2;stroke-miterlimit:10;" d="M451.753,345.325
							c26.365,7.285,14.801,44.645-11.195,36.2C419.431,374.663,425.387,338.04,451.753,345.325z"/>
					</g>
					<g>
						<path style="fill:none;stroke:#433A61;stroke-width:2;stroke-miterlimit:10;" d="M494.037,358.217
							c26.365,7.285,14.801,44.645-11.195,36.2C461.715,387.554,467.672,350.931,494.037,358.217z"/>
						<path style="opacity:0.43;fill:none;stroke:#433A61;stroke-width:2;stroke-miterlimit:10;" d="M494.037,358.217
							c26.365,7.285,14.801,44.645-11.195,36.2C461.715,387.554,467.672,350.931,494.037,358.217z"/>
					</g>
				</g>
			</g>
			<g>
				<g>
					<g>
						<g>
							<path style="fill:#FAA485;" d="M479.556,438.389c-0.659,10.241-3.885,25.649-3.885,25.649l7.643,7.983
								c0,0,9.416,1.003,11.42-32.509c0.229-3.827-2.314-7.263-6.07-8.029l0,0C484.165,430.565,479.851,433.807,479.556,438.389z"/>
							<path style="opacity:0.23;fill:#F15657;" d="M492.555,456.802c0.96-4.383,1.744-10.022,2.178-17.289
								c0.025-0.421,0.004-0.834-0.036-1.242c-1.244-3.134-3.523-5.954-7.263-6.925c-4.025-0.162-7.61,2.883-7.878,7.044
								c-0.317,4.925-1.227,11.041-2.087,16.068L492.555,456.802z"/>
						</g>
					</g>
				</g>
				<path style="fill:#433A61;" d="M482.484,424.564c13.271-3.033,13.204,10.528,13.805,16.481
					c0.601,5.953-0.135,14.177-0.135,14.177l-20.494-3.185C475.66,452.037,474.758,426.33,482.484,424.564z"/>
				<path style="opacity:0.49;fill:#433A61;" d="M482.484,424.564c13.271-3.033,13.204,10.528,13.805,16.481
					c0.601,5.953-0.135,14.177-0.135,14.177l-20.494-3.185C475.66,452.037,474.758,426.33,482.484,424.564z"/>
				<path style="fill:#FAA485;" d="M482.01,459.039c-7.409,1.012-19.618-1.543-21.309-1.91c-0.553-1.605-2.822-2.956-5.693-3.271
					c-3.374-0.37-5.882-1.26-6.044,0.518c-0.137,1.512,3.025,2.419,3.526,2.446c-1.024-0.04-8.798-1.011-9.847,0.34
					c-1.559,2.009-1.353,9.899,16.739,9.48c4.674,4.315,14.317,10.842,25.649,5.025c0.019-0.01,0.876-1.129,0.896-1.135
					L482.01,459.039z"/>
			</g>
		</g>
		<g>
			<path style="fill:#433A61;" d="M371.053,433.558c0,0,3.217,6.066,4.503,6.645c1.286,0.578,20.908-4.232,23.264-6.518
				c1.28-1.242,0.735-8.344,0.735-8.344L371.053,433.558z"/>
			<path style="fill:#433A61;" d="M371.053,433.558c0,0,3.217,6.066,4.503,6.645c1.286,0.578,20.908-4.232,23.264-6.518
				c1.28-1.242,0.735-8.344,0.735-8.344L371.053,433.558z"/>
			<path style="fill:#FFFFFF;" d="M356.881,398.894c-3.838-2.529-30.283,1.304-42.235-29.789
				c-11.951-31.093,14.805-67.372,56.787-66.206c41.982,1.166,48.049,53.401,39.409,68.038c-8.64,14.637-20.621,14.43-18.977,20.981
				c1.644,6.551,3.686,11.23,3.686,11.23l-34.154,9.194C361.396,412.342,360.719,401.423,356.881,398.894z"/>
			<path style="opacity:0.07;fill:#433A61;" d="M371.433,302.899c-41.982-1.166-68.738,35.113-56.787,66.206
				c11.952,31.093,38.397,27.259,42.235,29.789c3.838,2.529,4.515,13.448,4.515,13.448l34.154-9.194c0,0-2.042-4.68-3.686-11.23
				c-1.644-6.55,10.337-6.344,18.977-20.981C419.482,356.301,413.415,304.066,371.433,302.899z M325.976,356.594
				c-19.872-0.06-0.143-43.859,20.224-42.699C366.566,315.056,345.848,356.654,325.976,356.594z"/>
			<g>
				<g>
					<path style="fill:#433A61;" d="M374.334,409.012c-1.05-4.253-2.682-8.363-4.878-12.156c-2.098-3.624-4.545-6.936-8.522-8.58
						c-3.683-1.522-7.792-1.637-11.446-3.229c-3.393-1.477-6.252-4.131-7.936-7.427c-1.686-3.3-1.891-7.105-0.668-10.592
						c1.17-3.335,4.259-7.239,8.055-7.572c3.714-0.326,6.783,3.814,8.084,6.835c0.344,0.798,0.75,1.949,0.262,2.762
						c-0.463,0.771-1.526,0.789-2.271,0.433c-1.637-0.783-2.214-3.104-2.329-4.75c-0.25-3.569,1.424-7.329,4.569-9.166
						c3.078-1.797,7.343-1.619,10.151,0.639c1.43,1.15,2.82,3.203,2.184,5.12c-0.656,1.978-2.797,2.481-4.184,0.932
						c-2.8-3.127-0.453-7.673,2.435-9.717c1.641-1.161,3.813-2.277,5.867-2.245c2.309,0.035,3.778,2.452,4.944,4.142
						c1.129,1.636,2.962,3.935,2.751,6.049c-0.079,0.788-0.538,1.723-1.395,1.848c-0.961,0.139-1.787-0.763-2.067-1.594
						c-0.655-1.949,0.414-4.363,1.395-6.022c0.944-1.596,2.488-3.663,4.394-4.119c2.005-0.48,4.315,0.709,5.913,1.828
						c1.537,1.076,2.813,2.526,3.726,4.161c1.884,3.375,1.954,7.556,0.301,11.041c-1.848,3.897-5.801,5.62-8.41,8.862
						c-5.373,6.677-4.774,15.831-2.138,23.492c0.738,2.146,1.624,4.237,2.548,6.309c0.654,1.467,2.809,0.196,2.159-1.262
						c-2.341-5.249-4.435-10.884-4.202-16.723c0.103-2.581,0.669-5.201,1.828-7.519c1.204-2.408,2.981-4.147,5.06-5.812
						c2.002-1.603,3.839-3.283,5.056-5.578c1.112-2.096,1.731-4.444,1.781-6.817c0.1-4.782-2.314-9.297-6.148-12.098
						c-1.942-1.419-4.482-2.587-6.934-2.465c-2.563,0.127-4.518,1.933-6.012,3.865c-2.516,3.251-5.201,10.295-0.056,12.601
						c2.071,0.929,4.28-0.067,5.218-2.07c1.094-2.338,0.104-4.813-1.108-6.886c-1.323-2.262-2.905-4.86-5.012-6.474
						c-2.183-1.672-4.895-1.429-7.329-0.458c-4.331,1.727-8.344,5.342-8.264,10.347c0.035,2.201,0.935,4.428,2.715,5.783
						c1.826,1.39,4.193,1.312,5.927-0.204c3.994-3.494,0.951-9.177-2.892-11.266c-3.999-2.174-9.171-1.779-12.745,1.045
						c-3.541,2.798-5.139,7.607-4.323,11.997c0.395,2.128,1.478,4.428,3.52,5.412c1.985,0.957,4.546,0.48,5.636-1.556
						c1.112-2.079,0.023-4.619-1.065-6.458c-1.185-2.002-2.673-3.906-4.593-5.249c-4.258-2.977-9.328-0.89-12.441,2.735
						c-2.947,3.431-4.325,8.083-3.698,12.563c0.641,4.585,3.356,8.647,7.015,11.404c4.089,3.081,8.933,3.437,13.671,4.876
						c2.653,0.806,4.787,2.198,6.478,4.415c1.681,2.204,3.06,4.691,4.228,7.199c1.199,2.577,2.108,5.274,2.789,8.032
						C372.309,411.238,374.72,410.577,374.334,409.012L374.334,409.012z"/>
				</g>
			</g>
			<path style="opacity:0.04;fill:#433A61;" d="M314.153,367.751c0.157,0.452,0.32,0.904,0.493,1.354
				c11.952,31.093,38.397,27.26,42.235,29.789c3.838,2.529,4.515,13.448,4.515,13.448l34.154-9.194c0,0-2.042-4.68-3.686-11.23
				c-1.644-6.55,10.337-6.344,18.977-20.981c3.107-5.264,4.312-15.391,2.629-26.257C379.383,400.121,335.51,381.821,314.153,367.751
				z"/>
			<path style="fill:#433A61;" d="M358.727,408.619l37.372-10.762c0,0,8.581,23.052,6.543,27.537
				c-2.556,5.624-30.527,13.386-35.609,8.472C361.951,428.951,358.727,408.619,358.727,408.619z"/>
			<g>
				<path style="opacity:0.16;fill:#FFFFFF;" d="M402.233,417.963c-9.614,3.513-27.517,8.677-37.918,11.602
					c0.745,1.646,1.555,3.03,2.42,3.981c11.46-3.207,27.584-8.641,36.145-11.585C402.77,420.787,402.542,419.428,402.233,417.963z"
					/>
				<path style="opacity:0.16;fill:#FFFFFF;" d="M360.978,419.415c0.441,1.744,0.943,3.544,1.498,5.274
					c11.371-2.217,29.695-8.046,38.718-11.017c-0.397-1.484-0.834-2.992-1.28-4.459C389.45,413.157,370.286,417.443,360.978,419.415
					z"/>
				<path style="opacity:0.16;fill:#FFFFFF;" d="M359.326,411.957c0.193,1.001,0.432,2.178,0.712,3.462
					c10.203-1.296,29.605-7.235,38.64-10.115c-0.489-1.494-0.952-2.857-1.349-3.997C386.193,405.668,366.85,410.249,359.326,411.957
					z"/>
			</g>
		</g>
	</g>
	<g>
		<g>
			<path style="fill:#FFFFFF;" d="M302.039,74.769c0-2.477-117.702-1.83-119.869-1.211c-2.167,0.619,0,44.973,0,44.973
				s6.342-0.026,16.089-0.063l-6.48,11.284l23.58-11.345c34.489-0.118,83.693-0.25,85.297-0.049
				C303.132,118.667,302.039,77.246,302.039,74.769z"/>
			<path style="opacity:0.17;fill:#433A61;" d="M302.039,74.769c0-2.477-117.702-1.83-119.869-1.211c-2.167,0.619,0,44.973,0,44.973
				s6.342-0.026,16.089-0.063l-6.48,11.284l23.58-11.345c34.489-0.118,83.693-0.25,85.297-0.049
				C303.132,118.667,302.039,77.246,302.039,74.769z"/>
			<polygon style="fill:#433A61;" points="215.397,82.393 293.654,82.277 293.308,85.564 215.57,85.507 			"/>
			<polygon style="fill:#433A61;" points="215.397,91.562 293.654,91.447 293.308,94.733 215.57,94.676 			"/>
			<polygon style="fill:#433A61;" points="215.397,100.732 293.654,100.616 293.308,103.902 215.57,103.845 			"/>
		</g>
		<g>
			<path style="fill:#FFFFFF;" d="M312.732,239.858c0-2.477,117.702-1.83,119.869-1.211c2.167,0.619,0,44.973,0,44.973
				s-6.342-0.026-16.089-0.063l6.481,11.284l-23.58-11.345c-34.489-0.118-83.693-0.249-85.297-0.049
				C311.639,283.757,312.732,242.335,312.732,239.858z"/>
			<path style="opacity:0.17;fill:#433A61;" d="M312.732,239.858c0-2.477,117.702-1.83,119.869-1.211c2.167,0.619,0,44.973,0,44.973
				s-6.342-0.026-16.089-0.063l6.481,11.284l-23.58-11.345c-34.489-0.118-83.693-0.249-85.297-0.049
				C311.639,283.757,312.732,242.335,312.732,239.858z"/>
			<polygon style="fill:#433A61;" points="417.346,247.482 321.117,247.367 321.463,250.653 417.173,250.596 			"/>
			<polygon style="fill:#433A61;" points="417.346,256.652 321.117,256.536 321.463,259.823 417.173,259.765 			"/>
			<polygon style="fill:#433A61;" points="417.346,265.821 321.117,265.706 321.463,268.992 417.173,268.935 			"/>
		</g>
	</g>
	<g>
		<g>
			<rect x="64.602" y="402.155" style="fill:#433A61;" width="26.82" height="45.682"/>
			<rect x="64.602" y="402.155" style="opacity:0.72;fill:#433A61;" width="26.82" height="45.682"/>
			<rect x="101.106" y="386.617" style="fill:#433A61;" width="26.82" height="61.22"/>
			<rect x="101.106" y="386.617" style="opacity:0.4;fill:#433A61;" width="26.82" height="61.22"/>
			<polyline style="fill:#433A61;" points="150.518,377.132 162.792,377.132 162.792,447.837 135.972,447.837 135.972,377.132 
				150.518,377.132 			"/>
			<polyline style="opacity:0.22;fill:#433A61;" points="150.518,377.132 162.792,377.132 162.792,447.837 135.972,447.837 
				135.972,377.132 150.518,377.132 			"/>
			<polyline style="fill:#433A61;" points="186.885,363.814 199.159,363.814 199.159,447.837 172.339,447.837 172.339,363.814 
				186.885,363.814 			"/>
		</g>
		<g>
			<polygon style="fill:#433A61;" points="70.373,26.03 221.803,26.183 221.497,31.083 70.373,31.237 			"/>
			<polygon style="fill:#433A61;" points="70.373,41.455 221.803,41.608 221.497,46.508 70.373,46.661 			"/>
			<polygon style="fill:#433A61;" points="70.373,56.88 221.803,57.033 221.497,61.933 70.373,62.086 			"/>
			<polygon style="fill:#433A61;" points="64.248,56.88 59.654,57.033 59.678,61.933 64.248,62.086 			"/>
			<polygon style="fill:#433A61;" points="64.248,41.455 59.654,41.608 59.678,46.508 64.248,46.661 			"/>
			<polygon style="fill:#433A61;" points="64.248,26.03 59.654,26.183 59.678,31.083 64.248,31.237 			"/>
		</g>
		<g>
			<path style="fill:#433A61;" d="M272.283,366.818c35.556-2.42,51.132,45.421,35.086,63.099
				c-16.047,17.679-36.173,22.03-53.58,14.143C228.253,432.489,220.335,370.354,272.283,366.818z"/>
			<path style="opacity:0.53;fill:#FFFFFF;" d="M272.283,366.818c35.556-2.42,51.132,45.421,35.086,63.099
				c-16.047,17.679-36.173,22.03-53.58,14.143C228.253,432.489,220.335,370.354,272.283,366.818z"/>
			<path style="fill:#433A61;" d="M307.369,429.917c15.922-17.541,0.701-64.749-34.269-63.12l-1.361,40.818l16.453,36.512
				C294.914,441.18,301.422,436.469,307.369,429.917z"/>
			<path style="opacity:0.22;fill:#433A61;" d="M307.369,429.917c15.922-17.541,0.701-64.749-34.269-63.12l-1.361,40.818
				l16.453,36.512C294.914,441.18,301.422,436.469,307.369,429.917z"/>
			<path style="fill:#433A61;" d="M273.1,366.797l-1.361,40.818l37.055-17.531C302.445,376.789,290.121,366.004,273.1,366.797z"/>
			<path style="opacity:0.24;fill:#FFFFFF;" d="M273.1,366.797l-1.361,40.818l37.055-17.531
				C302.445,376.789,290.121,366.004,273.1,366.797z"/>
			<path style="fill:#433A61;" d="M307.369,429.917c0.376-0.415,0.718-0.861,1.06-1.308l-36.69-20.995l16.453,36.512
				C294.914,441.18,301.422,436.469,307.369,429.917z"/>
			<path style="opacity:0.49;fill:#433A61;" d="M307.369,429.917c0.376-0.415,0.718-0.861,1.06-1.308l-36.69-20.995l16.453,36.512
				C294.914,441.18,301.422,436.469,307.369,429.917z"/>
		</g>
	</g>
</g>
</svg>
