<?xml version="1.0" encoding="utf-8"?>
<!-- Generator: Adobe Illustrator 27.5.0, SVG Export Plug-In . SVG Version: 6.00 Build 0)  -->
<svg version="1.1" xmlns="http://www.w3.org/2000/svg" xmlns:xlink="http://www.w3.org/1999/xlink" x="0px" y="0px"
	 viewBox="0 0 780 500" style="enable-background:new 0 0 780 500;" xml:space="preserve">
<g id="BACKGROUND">
	<rect style="fill:#FEEAE5;" width="780" height="500"/>
</g>
<g id="OBJECTS">
	<g>
		<g>
			<g>
				<rect x="420.156" y="110.287" style="fill:#FFFFFF;" width="60.464" height="81.117"/>
				<rect x="426.574" y="118.898" style="fill:#AC4255;" width="47.627" height="63.895"/>
				<polygon style="fill:#FCEBE7;" points="428.191,120.146 427.703,181.546 473.072,181.163 473.072,120.146 				"/>
			</g>
			<g>
				<rect x="501.588" y="110.287" style="fill:#FFFFFF;" width="60.464" height="81.117"/>
				<rect x="508.006" y="118.898" style="fill:#AC4255;" width="47.627" height="63.895"/>
				<polygon style="fill:#FCEBE7;" points="509.623,120.146 509.135,181.546 554.504,181.163 554.504,120.146 				"/>
			</g>
			<g>
				<rect x="583.019" y="110.287" style="fill:#FFFFFF;" width="60.464" height="81.117"/>
				<rect x="589.438" y="118.898" style="fill:#AC4255;" width="47.627" height="63.895"/>
				<polygon style="fill:#FCEBE7;" points="591.055,120.146 590.567,181.546 635.936,181.163 635.936,120.146 				"/>
			</g>
		</g>
		<g>
			<g>
				<g>
					<path style="fill:#F29E87;" d="M434.984,427.874h-6.307v-89.846c0-0.938,0.761-1.699,1.699-1.699h2.909
						c0.938,0,1.699,0.761,1.699,1.699V427.874z"/>
					<path style="fill:#F29E87;" d="M330.037,427.874h-6.307v-89.846c0-0.938,0.761-1.699,1.699-1.699h2.909
						c0.938,0,1.699,0.761,1.699,1.699V427.874z"/>
				</g>
			</g>
			<g>
				<g>
					<rect x="334.576" y="311.079" style="fill:#F29E87;" width="4.284" height="20.576"/>
					
						<rect x="419.854" y="311.079" transform="matrix(-1 -1.224647e-16 1.224647e-16 -1 843.9917 642.7347)" style="fill:#F29E87;" width="4.284" height="20.576"/>
				</g>
				<path style="fill:#AC4255;" d="M403.924,260.794H354.79c-11.164,0-20.214,9.05-20.214,20.214v30.071h89.562v-30.071
					C424.138,269.845,415.088,260.794,403.924,260.794z"/>
			</g>
		</g>
		<g>
			<g>
				<g>
					<path style="fill:#F29E87;" d="M549.177,427.874h-6.307v-89.846c0-0.938,0.761-1.699,1.699-1.699h2.909
						c0.938,0,1.699,0.761,1.699,1.699V427.874z"/>
					<path style="fill:#F29E87;" d="M444.23,427.874h-6.307v-89.846c0-0.938,0.761-1.699,1.699-1.699h2.909
						c0.938,0,1.699,0.761,1.699,1.699V427.874z"/>
				</g>
			</g>
			<g>
				<g>
					<rect x="448.769" y="311.079" style="fill:#F29E87;" width="4.284" height="20.576"/>
					
						<rect x="534.047" y="311.079" transform="matrix(-1 -1.224647e-16 1.224647e-16 -1 1072.3773 642.7347)" style="fill:#F29E87;" width="4.284" height="20.576"/>
				</g>
				<path style="fill:#AC4255;" d="M518.116,260.794h-49.133c-11.164,0-20.214,9.05-20.214,20.214v30.071h89.562v-30.071
					C538.331,269.845,529.281,260.794,518.116,260.794z"/>
			</g>
		</g>
		<g>
			<g>
				<g>
					<path style="fill:#F29E87;" d="M320.791,427.874h-6.307v-89.846c0-0.938,0.761-1.699,1.699-1.699h2.909
						c0.938,0,1.699,0.761,1.699,1.699V427.874z"/>
					<path style="fill:#F29E87;" d="M215.844,427.874h-6.307v-89.846c0-0.938,0.761-1.699,1.699-1.699h2.909
						c0.938,0,1.699,0.761,1.699,1.699V427.874z"/>
				</g>
			</g>
			<g>
				<g>
					<rect x="220.383" y="311.079" style="fill:#F29E87;" width="4.284" height="20.576"/>
					
						<rect x="305.661" y="311.079" transform="matrix(-1 -1.224647e-16 1.224647e-16 -1 615.606 642.7347)" style="fill:#F29E87;" width="4.284" height="20.576"/>
				</g>
				<path style="fill:#AC4255;" d="M289.731,260.794h-49.134c-11.164,0-20.214,9.05-20.214,20.214v30.071h89.562v-30.071
					C309.945,269.845,300.895,260.794,289.731,260.794z"/>
			</g>
		</g>
		<g>
			<g>
				<path style="fill:#002762;" d="M404.375,302.816c0,0-1.041,2.862,1.174,4.778c2.215,1.916,8.93,5.03,8.93,14.063
					c0,9.034-6.595,15.68-15.569,15.68c-8.974,0-38.576,0-46.478,0c-8.737,0-16.734-9.195-15.521-20.337
					c1.213-11.142,4.785-12.017,8.932-17.857L404.375,302.816z"/>
				<path style="fill:#002762;" d="M424.02,326.518c2.864-14.181-10.225-23.275-27.156-15.025
					c-16.931,8.25-16.12,25.845-8.53,25.845c10.576,0,21.68,0,26.405,0C419.463,337.337,422.063,336.207,424.02,326.518z"/>
				<path style="fill:#002762;" d="M352.432,337.337c-13.581,0-18.577-4.712-19.244-10.819c-0.684-6.254,0.221-15.661,8.046-21.747
					c7.826-6.086,24.188,6.728,27.531,15.802c3.343,9.075,1.311,16.763-4.457,16.763
					C360.13,337.337,352.432,337.337,352.432,337.337z"/>
				<path style="fill:#011A3F;" d="M399.848,325.55c0.186,2.642-9.89,2.579-16.537,2.579c0,0,0.62-8.744,11.284-15.415
					c0,0-8.833,4.215-15.44,7.708c-6.607,3.493-11.489-2.181-11.489-2.181s2.712,5.525,2.712,9.889c0,0-8.519,0-10.154,0
					s-2.823-1.671-2.983-4.28h-4.543v13.488h50.48v-11.851L399.848,325.55z"/>
				<path style="fill:#AC4255;" d="M417.358,350.831h-76.002c-8.009,0-14.502-6.493-14.502-14.502l0,0
					c0-2.581,2.092-4.674,4.674-4.674h95.658c2.581,0,4.674,2.093,4.674,4.674l0,0C431.86,344.338,425.367,350.831,417.358,350.831z
					"/>
				<g>
					<path style="fill:#002762;" d="M357.36,325.55c0,6.448-3.375,10.438-1.745,16.499c5.552,20.641,7.298,28.079,7.298,60.284
						h-17.927c0,0-0.952-11.422-0.952-12.374c0-0.952-12.074-31.094-11.51-44.896c0.564-13.802,1.275-14.715,0.665-18.545
						c-0.61-3.831,1.689-11.59,8.625-13.313C348.952,311.431,357.36,317.142,357.36,325.55z"/>
					<polygon style="fill:#F3A38D;" points="362.912,405.526 362.912,402.333 348.617,402.333 349.336,406.319 					"/>
					<path style="fill:#011A3F;" d="M363.864,406.775c1.263,3.543,0.793,7.932,0,9.36c-0.793,1.428,1.459,4.759,0.492,8.884
						c0,0,1.158,0.793,0.492,2.855h-20.972c0,0-0.635-1.745,0.635-2.697c0,0-0.793-2.221,1.904-6.98
						c2.697-4.759-0.317-10.946,5.235-13.802C357.201,401.54,363.135,404.73,363.864,406.775z"/>
				</g>
				<g>
					<path style="fill:#002762;" d="M399.848,325.55c0,6.448,3.375,10.438,1.745,16.499c-5.552,20.641-7.297,28.079-7.297,60.284
						h17.926c0,0,0.952-11.422,0.952-12.374c0-0.952,12.075-31.094,11.51-44.896c-0.564-13.802-1.275-14.715-0.664-18.545
						c0.61-3.831-1.689-11.59-8.625-13.313C408.256,311.431,399.848,317.142,399.848,325.55z"/>
					<polygon style="fill:#F3A38D;" points="394.295,405.526 394.295,402.333 408.59,402.333 407.871,406.319 					"/>
					<path style="fill:#011A3F;" d="M393.343,406.775c-1.263,3.543-0.793,7.932,0,9.36c0.793,1.428-1.459,4.759-0.492,8.884
						c0,0-1.158,0.793-0.492,2.855h20.972c0,0,0.635-1.745-0.635-2.697c0,0,0.793-2.221-1.904-6.98
						c-2.697-4.759,0.317-10.946-5.235-13.802C400.006,401.54,394.072,404.73,393.343,406.775z"/>
				</g>
			</g>
			<g>
				<g>
					<path style="fill:#9DBF2E;" d="M430.897,252.382c0,0-30.361-37.247-74.563-21.637c0,0-4.962,6.791,0,35.924
						c2.809,16.488-11.832,22.308-10.492,32.474c0,0,11.608,8.826,33.709,8.826c22.101,0,27.516-4.55,27.516-4.55
						S427.549,280.287,430.897,252.382z"/>
					<path style="fill:#8BA324;" d="M364.535,291.347c-5.839-9.601-7.63-28.125-6.6-37.019l-3.542-0.476
						c0.387,3.7,1.591,7.863,1.942,12.817c0.595,8.421-11.832,22.308-10.492,32.474c0,0,11.609,8.826,33.709,8.826
						c2.063,0,3.979-0.04,5.76-0.112l0.001-0.001C377.68,308.43,370.374,300.948,364.535,291.347z"/>
					<path style="fill:#8BA324;" d="M428.763,263.115h-15.372c-9.952,16.949-20.061,28.278-21.48,35.338
						c-1.419,7.061,1.596,8.931,4.761,8.308c0,0,0,0,0.001,0c0.052-0.01,0.119-0.021,0.196-0.032c7.864-1.347,10.2-3.31,10.2-3.31
						S422.503,285.976,428.763,263.115z"/>
				</g>
				<g>
					<path style="fill:#CEDF96;" d="M385.314,246.706c0,0,0.305,2.977,0.598,7.146c0,0,2.93-0.006,3.883,1.239l4.946-6.041v-1.438
						l-7.408-2.494L385.314,246.706z"/>
					<path style="fill:#CEDF96;" d="M389.795,255.091c-0.952-1.245-3.883-1.239-3.883-1.239c-1.48,1.574-2.891,4.678-3.879,11.029
						c-0.988,6.351-2.884,36.975-4.124,48.406s-0.957,13.689-0.957,13.689s1.557,2.987,6.917,5.022c0,0,3.258-3.187,3.462-6.151
						C387.537,322.884,392.194,261.531,389.795,255.091z"/>
				</g>
				<g>
					<g>
						<path style="fill:#8BA324;" d="M380.685,233.729c-2.292,4.927-3.096,11.05-2.663,15.937l9.31-3.459L380.685,233.729z"/>
						<path style="fill:#8BA324;" d="M394.741,249.05c0.047,0.051,6.679,8.285,6.679,8.285s2.503-4.535,3.943-8.89L394.741,249.05z"
							/>
					</g>
					<g>
						<path style="fill:#9DBF2E;" d="M388.557,226.45c-5.584,0.184-6.451,2.938-8.078,7.904c-1.626,4.965-1.843,14.005-1.843,14.005
							l10.467-2.59L388.557,226.45z"/>
						<path style="fill:#9DBF2E;" d="M393.996,248.249l7.423,7.983c0,0,4.72-8.153,6.985-15.739L393.996,248.249z"/>
					</g>
				</g>
				<g>
					<path style="fill:#9DBF2E;" d="M430.897,252.382c4.504,5.704,0.923,46.271-7.464,53.273c0,0-18.565-12.186-18.565-18.557
						C404.869,271.804,423.53,243.053,430.897,252.382z"/>
					<path style="fill:#8BA324;" d="M411.897,265.615l-0.003,0c-4.046,7.119-7.025,15.374-7.025,21.483
						c0,6.372,18.565,18.557,18.565,18.557c3.193-2.666,5.689-10.199,7.308-18.82C421.193,284.506,409.019,272.422,411.897,265.615z
						"/>
				</g>
				<g>
					<g>
						<path style="fill:#9DBF2E;" d="M356.335,230.745c-8.044,2.984-11.229,10.937-14.52,19.814
							c-3.291,8.877-13.401,29.53-13.761,35.076c0,0,20.493,2.789,21.171,4.655c0,0,0.659-1.495,3.207-4.655
							c2.548-3.16,4.236-21.026,4.767-24.765C357.729,257.131,360.924,229.043,356.335,230.745z"/>
						<path style="fill:#8BA324;" d="M330.485,284.223l0.284,1.803c5.592,0.832,17.932,2.823,18.456,4.264
							c0,0,0.659-1.495,3.207-4.655C350.414,282.319,337.249,280.776,330.485,284.223z"/>
					</g>
					<g>
						<path style="fill:#9DBF2E;" d="M349.06,298.685c1.249-0.497,0.718-2.621,0.93-5.381c0.212-2.76-3.185-8.812-11.785-9.98
							c-8.6-1.168-11.993,4.137-13.696,5.627c-1.699,1.486,0.106,4.884,1.592,7.007c1.486,2.123,0.068,5.139,3.379,5.383
							C332.79,301.585,349.06,298.685,349.06,298.685z"/>
						<path style="fill:#F3A38D;" d="M328.688,299.143c1.519,6.678,11.694,13.636,12.892,15.432
							c0.863,1.293,3.786,7.724,8.063,13.511c0.372,0.504,0.859,0.911,1.414,1.201c1.106,0.579,2.999,1.609,3.635,2.2
							c0.919,0.853,2.297,0,2.297,0s2.035,0.824,2.757,0.379c0.722-0.445,3.676-1.626,3.676-1.626s-1.67-16.082-3.198-17.526
							c-1.528-1.444-8.027-7.68-9.733-10.437c-1.707-2.757-1.116-8.402-9.78-9.452C332.045,291.774,328.099,296.556,328.688,299.143
							z"/>
						<rect x="338.851" y="329.648" style="fill:#FFFFFF;" width="52.698" height="33.909"/>
						<polygon style="fill:#ED7C5C;" points="359.143,329.648 361.65,323.415 363.421,329.648 						"/>
						<path style="fill:#F3A38D;" d="M360.223,312.714c2.476,2.757,4.051,7.942,4.642,9.19c0.591,1.247,2.626,8.665,1.904,9.584
							c-0.722,0.919-3.085,0.591-4.004-1.575c-0.919-2.166-0.985-4.464-1.51-5.251c-0.525-0.788-3.085-5.842-3.085-5.842
							L360.223,312.714z"/>
					</g>
				</g>
			</g>
			<g>
				<path style="fill:#ED7C5C;" d="M389.105,229.825c-0.982,1.983-2.795,3.101-4.05,2.497c-1.255-0.605-1.476-2.703-0.494-4.686
					c0.982-1.983,2.795-3.101,4.05-2.497C389.866,225.743,390.087,227.841,389.105,229.825z"/>
				<path style="fill:#ED7C5C;" d="M406.518,241.422c-1.452,1.67-1.784,3.774-0.742,4.699c1.042,0.925,3.063,0.32,4.514-1.35
					c1.452-1.671,1.784-3.775,0.743-4.699C409.991,239.147,407.97,239.751,406.518,241.422z"/>
				<path style="fill:#F3A38D;" d="M409.844,240.626c-4.435,6.659-13.591,10.079-19.469,6.164
					c-5.878-3.915-6.252-13.682-1.817-20.341c4.435-6.659,11.999-7.688,17.877-3.774
					C412.312,226.591,414.278,233.967,409.844,240.626z"/>
				<path style="fill:#ED7C5C;" d="M397.477,248.358c4.655-0.488,9.498-3.425,12.367-7.732c3.291-4.942,3.051-10.275,0.31-14.299
					l-4.605,4.723c1.094,0.368,1.198,1.246,0.718,1.954c-0.718,1.061-1.182,1.638-1.398,3.097
					C404.116,241.177,403.264,247.768,397.477,248.358z"/>
				<g>
					
						<line style="fill:none;stroke:#002762;stroke-width:1.6893;stroke-linecap:round;stroke-miterlimit:10;" x1="391.91" y1="228.73" x2="396.079" y2="233.312"/>
					<g>
						<path style="fill:#002762;" d="M391.223,230.246c0.464,0.591,0.745,1.13,1.118,1.578c0.361,0.46,0.752,0.813,1.389,1.212
							c-0.351,0.144-0.757,0.131-1.12-0.005c-0.369-0.13-0.686-0.384-0.929-0.681C391.21,231.737,391.032,230.968,391.223,230.246z"
							/>
					</g>
					
						<line style="fill:none;stroke:#002762;stroke-width:1.6893;stroke-linecap:round;stroke-miterlimit:10;" x1="407.068" y1="239.73" x2="401.419" y2="237.188"/>
					<g>
						<path style="fill:#002762;" d="M405.84,240.853c-0.627,0.405-1.414,0.475-2.142,0.217c-0.357-0.14-0.698-0.362-0.935-0.672
							c-0.242-0.302-0.38-0.685-0.352-1.063c0.577,0.482,1.034,0.745,1.583,0.945C404.535,240.496,405.134,240.596,405.84,240.853z"
							/>
					</g>
					<g>
						<path style="fill:#ED7C5C;" d="M396.671,234.433l-0.074,0.704c-0.025,0.249-0.104,0.501-0.223,0.73
							c-0.062,0.117-0.126,0.221-0.214,0.334l-0.231,0.267l-0.462,0.534c-0.612,0.717-1.251,1.41-1.877,2.117l-0.034,0.039
							l-0.089,0.05c-0.333,0.188-0.643,0.331-1.026,0.438c-0.191,0.049-0.396,0.092-0.64,0.089c-0.104,0.021,0.088,0.002,0.091-0.02
							c0.036-0.03,0.01,0.17,0.079,0.334c0.075,0.199,0.13,0.262,0.363,0.65c0.324,0.619,0.458,0.969,0.873,1.248
							c0.405,0.293,1.032,0.432,1.694,0.583c0.041,0.008,0.068,0.049,0.06,0.09c-0.005,0.023-0.021,0.042-0.04,0.053
							c-0.613,0.315-1.333,0.495-2.139,0.298c-0.832-0.193-1.457-1.012-1.738-1.515c-0.105-0.162-0.433-0.639-0.49-1.084
							c-0.06-0.456-0.083-0.98,0.38-1.518c0.117-0.129,0.292-0.239,0.478-0.299c0.168-0.057,0.425-0.046,0.49-0.03
							c0.079,0.023,0.199,0.03,0.326,0.019c0.253-0.02,0.557-0.1,0.809-0.19l-0.123,0.089c0.702-0.621,1.391-1.257,2.108-1.867
							l0.534-0.462l0.267-0.231c0.069-0.062,0.146-0.146,0.208-0.229c0.265-0.324,0.347-0.796,0.501-1.249
							c0.012-0.038,0.052-0.06,0.091-0.048C396.654,234.367,396.674,234.4,396.671,234.433z"/>
						<path style="fill:#ED7C5C;" d="M395.537,240.459c0.191-0.29,0.436-0.507,0.676-0.73c0.247-0.214,0.537-0.368,0.813-0.542
							c0.548-0.354,1.103-0.698,1.664-1.033c0.01-0.006,0.023-0.003,0.029,0.007c0.005,0.009,0.003,0.02-0.004,0.027
							c-0.49,0.433-0.986,0.857-1.49,1.272c-0.249,0.211-0.484,0.441-0.764,0.61c-0.286,0.161-0.566,0.328-0.901,0.423
							c-0.012,0.003-0.024-0.004-0.028-0.016C395.532,240.471,395.534,240.464,395.537,240.459z"/>
					</g>
					<g>
						<path style="fill:#002762;" d="M390.522,243.789c0.799,0.197,1.453,0.474,2.121,0.694c0.329,0.116,0.658,0.207,0.995,0.301
							c0.34,0.075,0.684,0.131,1.103,0.183c-0.305,0.284-0.723,0.434-1.141,0.475c-0.42,0.036-0.837-0.037-1.228-0.16
							C391.606,245.002,390.921,244.521,390.522,243.789z"/>
					</g>
				</g>
				<path style="fill:#002762;" d="M406.803,244.09c1.058,1.141,2.679-1.327,4.388-2.981c3.759-3.639,7.769-9.275,8.086-13.318
					c0.232-2.959-1.585-3.964-1.585-3.964c-1.823-7.134-8.641-11.494-16.33-10.543c-7.084,0.876-8.799,7.107-8.799,7.107
					c-2.775,1.875-3.222,4.479-4.702,6.395c-1.481,1.916-1.684,2.526-1.093,3.15c0,0,3.575-5.158,7.063-6.902
					c3.488-1.744,7.769,10.068,16.726,8.561C410.557,231.597,411.746,238.731,406.803,244.09z"/>
			</g>
			<g>
				<g>
					<path style="fill:#9DBF2E;" d="M406.911,284.223c-1.348,4.582-2.745,8.715-3.277,13.096c-0.807,6.641,4.42,12.483,11.11,12.483
						l0,0c6.273,0,11.318-5.16,11.178-11.431l-0.232-10.382C423.675,293.697,409.101,291.925,406.911,284.223z"/>
					<path style="fill:#8BA324;" d="M420.24,291.278c-5.062,0.521-11.886-1.978-13.329-7.055c-1.348,4.582-2.745,8.715-3.277,13.096
						c-0.237,1.945,0.057,3.816,0.741,5.498c0.767,1.559,8.629-0.204,13.757-1.265L420.24,291.278z"/>
				</g>
				<path style="fill:#9DBF2E;" d="M425.69,287.989c-2.015,5.708-16.589,3.936-18.779-3.765l-0.103-2.408
					c0,0-1.986-0.181-2.577,1.345c-1.255,3.244-3.281,10.721-2.711,15.457c0,0,7.403,7.332,24.385,0.654
					c1.01-0.397,1.508-0.749,1.345-4.129c-0.156-3.207,1.447-8.523-1.6-8.948L425.69,287.989"/>
				<path style="fill:#F3A38D;" d="M425.69,287.989l-1.07-48.685c0-2.421-1.803-8.398-2.999-9.195s-4.251-1.328-4.915-0.863
					c0,0-1.262-0.465-2.789-0.465s-2.457,1.926-2.457,1.926s-1.594-0.598-2.524,0.598c-0.93,1.196-1.328,2.125-1.328,2.524
					s-2.059,0.199-2.059,1.129c0,0.93,1.262,1.063,1.262,1.063l1.7,1.919l0.755,4.036c0,12.462,3.182,10.805-0.744,31.625
					c-0.686,3.637-2.243,7.851-1.61,10.624C409.101,291.925,423.675,293.697,425.69,287.989z"/>
			</g>
		</g>
		<g>
			<g>
				<path style="fill:#4D93FB;" d="M241.171,240.347c-8.13,2.722-10.516,10.954-10.715,14.196
					c-0.199,3.242-3.779,8.342-3.779,12.355h14.986L241.171,240.347z"/>
				<polygon style="fill:#2E7BDC;" points="240.896,252.221 238.632,266.899 241.663,266.899 241.392,252.267 				"/>
			</g>
			<g>
				<g>
					<path style="fill:#011A3F;" d="M233.684,309.254c-0.997,2.375-2.93,7.941-2.159,13.595c1.13,8.288,6.292,14.489,14.375,14.489
						c11.488,0,36.088,0,36.088,0s13.053-2.146,14.327-12.312c0.87-6.946-1.405-12.621-3-16.095L233.684,309.254z"/>
					<path style="fill:#4D93FB;" d="M293.519,309.254c0-8.445-11.551-8.695-7.979-32.688c1.46-9.807,0.493-36.218,0.493-36.218
						l-13.448-4.724h-17.965l-13.448,4.724c0,0-0.967,26.411,0.492,36.218c3.572,23.993-4.318,23.651-7.979,32.688H293.519z"/>
					<g>
						<path style="fill:#002762;" d="M272.664,319.414c0.421-5.842-2.641-12.541-12.237-12.541c-9.596,0-18.727,2.929-22.818,5.684
							c-5.671,3.819-7.134,8.497-5.233,14.079c1.901,5.582,5.009,10.702,13.524,10.702c8.515,0,20.004,0,20.004,0L272.664,319.414z"
							/>
						<path style="fill:#011A3F;" d="M248.552,322.105c-0.946,3.925-15.325,8.317-16.176,4.53c1.9,5.582,5.009,10.702,13.524,10.702
							c1.747,0,3.62,0,5.492,0L248.552,322.105z"/>
						<path style="fill:#AC4255;" d="M303.165,350.831h-76.002c-8.009,0-14.502-6.493-14.502-14.502l0,0
							c0-2.581,2.093-4.674,4.674-4.674h95.658c2.581,0,4.674,2.093,4.674,4.674l0,0
							C317.667,344.338,311.174,350.831,303.165,350.831z"/>
					</g>
					<g>
						<g>
							<path style="fill:#4D93FB;" d="M286.032,240.347c8.13,2.722,10.516,10.954,10.715,14.196
								c0.199,3.242,3.779,8.342,3.779,12.355H285.54L286.032,240.347z"/>
							<polygon style="fill:#2E7BDC;" points="286.307,252.221 288.572,266.899 285.54,266.899 285.811,252.267 							"/>
						</g>
						<path style="fill:#F5B5A3;" d="M295.678,266.899c-0.274,3.604-1.249,20.552-1.34,22.833c-0.091,2.281-9.855-0.73-9.855-0.73
							l1.747-22.103H295.678z"/>
						<path style="fill:#EF886B;" d="M284.482,289.002c0,0,9.764,3.011,9.855,0.73c0.051-1.274,0.378-7.121,0.704-12.664
							c-3.693-0.718-5.28-3.81-6.47-10.17h-2.343L284.482,289.002z"/>
						<path style="fill:#F5B5A3;" d="M298.035,297.581c0-1.682-0.599-5.882-1.77-6.995c-1.171-1.112-1.872-1.286-1.872-2.004
							c0-0.286-7.623-1.851-9.911,0.42c-2.287,2.272,2.572,6.455,3.86,8.579H298.035z"/>
						<path style="fill:#EF886B;" d="M296.044,292.893l0.14-2.381c-1.12-1.041-1.791-1.23-1.791-1.931
							c0-0.286-7.623-1.851-9.911,0.42c-2.287,2.272,2.572,6.455,3.86,8.579h9.693c0-0.471-0.049-1.141-0.142-1.884
							C296.791,294.903,296.055,293.941,296.044,292.893z"/>
					</g>
					<g>
						<path style="fill:#F5B5A3;" d="M231.525,266.899c0.274,3.604,2.222,25.414,2.313,27.695c0.091,2.281,9.855-0.73,9.855-0.73
							l-2.719-26.965H231.525z"/>
						<path style="fill:#EF886B;" d="M239.975,290.83c0-9.657-2.365-15.22-1.343-23.931h2.343l2.719,26.965
							C243.693,293.864,239.975,292.03,239.975,290.83z"/>
					</g>
					<g>
						<polygon style="fill:#FFFFFF;" points="292.471,304.171 250.494,304.171 258.549,278.742 300.526,278.742 						"/>
						<g>
							<path style="fill:#F5B5A3;" d="M233.838,294.594c-0.154-2.208,2.856-4.319,6.137-3.764c3.958,0.669,5.687,4.618,6.802,4.618
								v13.111c0,0-8.196-2.007-10.928-6.021C233.117,298.524,234.027,297.307,233.838,294.594z"/>
							<path style="fill:#EF886B;" d="M245.542,301.875c0,0-7.075,0-8.554,0c-1.659,0-2.458-1.622-2.656-2.092
								c0.299,0.768,0.768,1.654,1.517,2.754c2.732,4.014,10.928,6.021,10.928,6.021v-6.456L245.542,301.875z"/>
							<path style="fill:#F5B5A3;" d="M245.961,297.651v-0.831c0-0.633,0.29-1.23,0.789-1.619c0.434-0.339,1.032-0.652,1.76-0.652
								c1.581,0,4.589,0.408,5.761,0.408c1.173,0,8.157,1.886,8.463,2.549c0.306,0.663,0.153,1.937-0.459,1.937h1.162
								c0.823,0,1.489,0.667,1.489,1.489l0,0c0,0.751-0.559,1.385-1.305,1.478l-0.735,0.092l0.743,0.475
								c0.331,0.212,0.532,0.578,0.532,0.971l0,0c0,0.637-0.516,1.153-1.153,1.153h-4.353l-7.667,3.806
								c-0.457,0.227-0.96,0.345-1.469,0.345h-1.876c-1.136,0-2.097-1.205-1.575-3.051c0.076-0.267,0.058-0.547-0.083-0.786
								c-0.307-0.52-0.771-1.539-0.392-2.476c0.143-0.353,0.148-0.741-0.052-1.065c-0.461-0.744-1.044-2.149,0.1-3.36
								C245.859,298.285,245.961,297.968,245.961,297.651z"/>
						</g>
						<path style="fill:#F5B5A3;" d="M298.035,298.36v-0.78c0-0.594-0.272-1.154-0.741-1.52c-0.407-0.318-0.969-0.613-1.653-0.613
							c-1.484,0-4.308,0.383-5.409,0.383c-1.101,0-7.659,1.771-7.946,2.393c-0.287,0.622-0.144,1.819,0.431,1.819h-1.091
							c-0.772,0-1.398,0.626-1.398,1.398l0,0c0,0.705,0.525,1.3,1.225,1.387l0.69,0.086l-0.698,0.447
							c-0.311,0.199-0.499,0.543-0.499,0.912l0,0c0,0.598,0.485,1.083,1.083,1.083h4.087l7.198,3.574
							c0.429,0.213,0.901,0.324,1.379,0.324h1.761c1.067,0,1.968-1.132,1.479-2.865c-0.071-0.251-0.055-0.514,0.078-0.738
							c0.289-0.489,0.724-1.445,0.368-2.325c-0.134-0.332-0.139-0.696,0.049-1c0.433-0.698,0.98-2.017-0.093-3.154
							C298.132,298.956,298.035,298.658,298.035,298.36z"/>
					</g>
				</g>
				<g>
					<rect x="251.433" y="221.471" style="fill:#002762;" width="24.067" height="17.232"/>
					<g>
						<path style="fill:#F5B5A3;" d="M272.628,226.923v11.78l-4.103,3.286c-1.467,1.175-2.566,2.747-3.165,4.528l-1.714,5.095
							l-1.714-5.095c-0.599-1.782-1.698-3.353-3.165-4.528l-4.103-3.286v-11.78H272.628z"/>
						<path style="fill:#EF886B;" d="M268.823,229.576v-2.652h-14.16v11.78l4.103,3.286c0.653,0.523,1.22,1.135,1.715,1.799l0.014,0
							C260.495,236.548,262.619,233.257,268.823,229.576z"/>
					</g>
					<path style="fill:#F5B5A3;" d="M276.582,216.609c0,8.303-5.792,14.062-12.937,14.062c-7.145,0-12.937-5.759-12.937-14.062
						c0-8.303,5.792-16.007,12.937-16.007C270.79,200.602,276.582,208.305,276.582,216.609z"/>
					<path style="fill:#002762;" d="M269.242,205.358c5,2.866,6.385,6.919,5,13.43c-3.709,17.443-5.14,23.667-5.14,31.772
						c0,13.789,4.259,19.656,4.259,19.656s9.304-0.89,9.304-13.194v-12.567c0-7.761-1.825-11.764-1.825-18.127
						c0-4.374,1.609-16.981-4.26-24.507c-2.668-3.421-6.862-7.02-12.936-5.887c-6.075-1.133-10.269,2.466-12.936,5.887
						c-5.869,7.526-5.232,20.133-5.232,24.507c0,6.362-3.77,10.366-3.77,18.127v11.595c0,7.824,6.342,14.166,14.166,14.166l0,0
						V216.16C257.148,216.16,264.377,216.026,269.242,205.358z"/>
					<g>
						<g>
							<path style="fill:#002762;" d="M256.926,217.049c0.778-0.04,1.436,0.048,2.089,0.081c0.662,0.043,1.23,0.059,1.998-0.081
								c-0.182,0.351-0.523,0.608-0.894,0.755c-0.374,0.15-0.773,0.182-1.158,0.168c-0.386-0.029-0.757-0.119-1.103-0.271
								C257.513,217.55,257.186,217.35,256.926,217.049z"/>
						</g>
						<g>
							<path style="fill:#002762;" d="M272.91,217.049c-0.26,0.301-0.588,0.501-0.932,0.652c-0.346,0.153-0.717,0.242-1.103,0.271
								c-0.385,0.014-0.785-0.018-1.158-0.168c-0.371-0.148-0.711-0.404-0.894-0.755c0.768,0.14,1.336,0.124,1.998,0.081
								C271.474,217.097,272.132,217.008,272.91,217.049z"/>
						</g>
						<g>
							<path style="fill:#002762;" d="M268.315,213.872c0.42-0.414,0.921-0.655,1.446-0.821c0.527-0.172,1.099-0.115,1.651-0.073
								c0.554,0.049,1.112,0.163,1.627,0.393c0.509,0.242,0.955,0.614,1.241,1.071c0.014,0.023,0.007,0.053-0.016,0.068
								c-0.019,0.012-0.044,0.009-0.06-0.006c-0.774-0.722-1.824-0.834-2.792-0.747c-0.496,0.043-0.969,0.228-1.471,0.25
								c-0.505,0.03-1.019,0.056-1.597-0.042c-0.03-0.005-0.05-0.033-0.045-0.063C268.302,213.89,268.307,213.879,268.315,213.872z"
								/>
						</g>
						<g>
							<path style="fill:#002762;" d="M261.491,213.964c-0.578,0.098-1.092,0.071-1.597,0.042c-0.502-0.022-0.975-0.207-1.471-0.25
								c-0.969-0.086-2.018,0.025-2.792,0.747c-0.02,0.018-0.051,0.018-0.069-0.002c-0.016-0.016-0.017-0.041-0.006-0.06
								c0.286-0.457,0.732-0.829,1.241-1.071c0.515-0.23,1.073-0.344,1.627-0.393c0.552-0.042,1.124-0.099,1.651,0.073
								c0.524,0.166,1.025,0.407,1.445,0.821c0.021,0.021,0.022,0.056,0,0.077C261.512,213.957,261.501,213.962,261.491,213.964z"/>
						</g>
						<g>
							<path style="fill:#002762;" d="M265.633,226.117c0.908-0.059,1.669-0.151,2.371-0.437c0.35-0.135,0.692-0.301,1.023-0.522
								c0.342-0.208,0.658-0.472,1.049-0.729c-0.174,0.899-0.867,1.691-1.769,2.039
								C267.409,226.814,266.349,226.706,265.633,226.117z"/>
						</g>
						<path style="fill:#EF886B;" d="M263.967,219.467c0.055,0.341-0.09,0.661-0.184,0.936l-0.316,0.794
							c-0.096,0.247-0.165,0.499-0.17,0.676c0.004,0.169,0.037,0.287,0.169,0.444l-0.023-0.021c0.217,0.174,0.55,0.332,0.857,0.417
							c0.316,0.092,0.644,0.144,0.977,0.155c0.334,0.027,0.67-0.012,1.011-0.044c0.34-0.046,0.68-0.114,1.027-0.188
							c-0.621,0.427-1.306,0.7-2.022,0.809c-0.358,0.039-0.724,0.05-1.09-0.017c-0.371-0.082-0.715-0.171-1.099-0.452l-0.023-0.022
							c-0.234-0.212-0.463-0.681-0.414-1.133c0.029-0.437,0.185-0.745,0.331-1.011c0.155-0.263,0.324-0.484,0.498-0.689
							C263.663,219.903,263.859,219.745,263.967,219.467z"/>
						<path style="fill:#EF886B;" d="M264.193,215.042c0.161,0.271,0.333,0.52,0.461,0.849c0.066,0.158,0.142,0.325,0.143,0.511
							c-0.009,0.186-0.024,0.374-0.13,0.545h-0.037c-0.106-0.165-0.143-0.314-0.197-0.46c-0.044-0.145-0.034-0.305-0.057-0.462
							c-0.049-0.303-0.151-0.629-0.217-0.961L264.193,215.042z"/>
					</g>
					<path style="fill:#002762;" d="M270.187,193.093c0,3.613-2.929,6.542-6.542,6.542c-3.613,0-6.542-2.929-6.542-6.542
						c0-3.613,2.929-6.542,6.542-6.542C267.258,186.551,270.187,189.48,270.187,193.093z"/>
				</g>
				<g>
					<path style="fill:#011A3F;" d="M253.559,394.824c0,0-1.597,21.168,0,25.76c0,0-0.71,0.816-0.101,4.716
						c0.221,1.412,1.208,2.574,2.638,2.574h13.148c1.071,0,1.996-0.727,2.262-1.765c0.689-2.692,1.157-8.326-0.579-15.938
						L253.559,394.824z"/>
					<path style="fill:#002762;" d="M251.563,369.463l-3.387-42.215c-0.753-9.39,6.341-17.447,15.364-17.447h0
						c5.304,0,9.507,4.675,9.174,10.203l-2.98,49.458H251.563z"/>
					<path style="fill:#F5B5A3;" d="M269.735,369.463c-0.799,12.381-1.797,20.369-1.797,25.76c0,4.958,2.87,10.38,3.332,18.226
						c0.068,1.148-0.856,2.118-2.006,2.118h-8.346c-3.458,0-6.317-2.698-6.516-6.151l-0.843-14.593c0,0-0.399-4.992,1.398-7.988
						c1.797-2.995-0.599-17.373-0.599-17.373H269.735z"/>
				</g>
				<g>
					<path style="fill:#011A3F;" d="M298.476,394.824c0,0,3.023,21.168,1.734,25.76c0,0,1.014,1.035,0.2,4.716
						c-0.309,1.396-1.035,2.574-2.464,2.574h-13.148c-1.071,0-2.045-0.727-2.38-1.765c-0.87-2.692-1.5-8.326-0.276-15.938
						L298.476,394.824z"/>
					<path style="fill:#002762;" d="M299.312,325.964c0-16.162-7.809-19.747-15.433-19.712c-8.971,0.041-10.345,6.307-10.345,7.472
						c0,7.106,1.678,13.417,2.408,19.276L299.312,325.964z"/>
					<path style="fill:#002762;" d="M298.766,369.463l0.545-42.215c0.121-9.39-7.516-17.447-16.538-17.447h0
						c-5.304,0-9.193,4.675-8.487,10.203l6.309,49.458H298.766z"/>
					<path style="fill:#F5B5A3;" d="M280.594,369.463c1.632,12.381,3.168,20.369,3.531,25.76c0.334,4.957-2.171,10.38-2.105,18.226
						c0.01,1.148,0.999,2.118,2.148,2.118h8.346c3.458,0,6.135-2.698,6.102-6.151l-0.139-14.593c0,0,0.063-4.992-1.936-7.988
						c-1.999-2.995-0.571-17.373-0.571-17.373H280.594z"/>
				</g>
				<g>
					<path style="fill:#011A3F;" d="M253.559,394.824c0,0-1.597,21.168,0,25.76c0,0-0.71,0.816-0.101,4.716
						c0.221,1.412,1.208,2.574,2.638,2.574h13.148c1.071,0,1.996-0.727,2.262-1.765c0.689-2.692,1.157-8.326-0.579-15.938
						L253.559,394.824z"/>
					<path style="fill:#002762;" d="M251.563,369.463l-3.387-42.215c-0.753-9.39,6.341-17.447,15.364-17.447h0
						c5.304,0,9.507,4.675,9.174,10.203l-2.98,49.458H251.563z"/>
					<path style="fill:#F5B5A3;" d="M269.735,369.463c-0.799,12.381-1.797,20.369-1.797,25.76c0,4.958,2.87,10.38,3.332,18.226
						c0.068,1.148-0.856,2.118-2.006,2.118h-8.346c-3.458,0-6.317-2.698-6.516-6.151l-0.843-14.593c0,0-0.399-4.992,1.398-7.988
						c1.797-2.995-0.599-17.373-0.599-17.373H269.735z"/>
				</g>
			</g>
		</g>
		<g>
			<g>
				<g>
					<g>
						<path style="fill:#F29E87;" d="M663.37,427.874h-6.307v-89.846c0-0.938,0.761-1.699,1.699-1.699h2.909
							c0.938,0,1.699,0.761,1.699,1.699V427.874z"/>
						<path style="fill:#F29E87;" d="M558.423,427.874h-6.307v-89.846c0-0.938,0.761-1.699,1.699-1.699h2.909
							c0.938,0,1.699,0.761,1.699,1.699V427.874z"/>
					</g>
				</g>
				<g>
					<g>
						<rect x="562.961" y="311.079" style="fill:#F29E87;" width="4.284" height="20.576"/>
						
							<rect x="648.24" y="311.079" transform="matrix(-1 -1.224647e-16 1.224647e-16 -1 1300.7629 642.7347)" style="fill:#F29E87;" width="4.284" height="20.576"/>
					</g>
					<path style="fill:#AC4255;" d="M632.309,260.794h-49.133c-11.164,0-20.214,9.05-20.214,20.214v30.071h89.562v-30.071
						C652.523,269.845,643.473,260.794,632.309,260.794z"/>
				</g>
			</g>
			<path style="fill:#AC4255;" d="M645.744,350.831h-76.002c-8.009,0-14.502-6.493-14.502-14.502l0,0
				c0-2.581,2.093-4.674,4.674-4.674h95.658c2.581,0,4.674,2.093,4.674,4.674l0,0C660.245,344.338,653.753,350.831,645.744,350.831z
				"/>
		</g>
		<g>
			<g>
				<g>
					<g>
						<polygon style="fill:#B75135;" points="501.998,226.923 501.998,238.703 493.016,251.613 484.033,238.703 484.033,226.923 
													"/>
						<path style="fill:#8A3D28;" d="M498.193,229.576v-2.652h-14.16v11.78l4.103,3.286c0.653,0.523,1.22,1.135,1.715,1.799l0.014,0
							C489.866,236.548,491.99,233.257,498.193,229.576z"/>
					</g>
					<path style="fill:#B75135;" d="M505.953,216.609c0,8.303-5.792,14.062-12.937,14.062c-7.145,0-12.937-5.759-12.937-14.062
						c0-8.303,5.792-16.007,12.937-16.007C500.161,200.602,505.953,208.305,505.953,216.609z"/>
				</g>
				<g>
					<g>
						<path style="fill:#002762;" d="M485.023,217.049c0.778-0.04,1.436,0.048,2.089,0.081c0.662,0.043,1.23,0.059,1.998-0.081
							c-0.182,0.351-0.523,0.608-0.894,0.755c-0.374,0.15-0.773,0.182-1.158,0.168c-0.386-0.029-0.757-0.119-1.103-0.271
							C485.611,217.55,485.284,217.35,485.023,217.049z"/>
					</g>
					<g>
						<path style="fill:#002762;" d="M501.008,217.049c-0.26,0.301-0.588,0.501-0.932,0.652c-0.346,0.153-0.717,0.242-1.103,0.271
							c-0.385,0.014-0.785-0.018-1.158-0.168c-0.371-0.148-0.711-0.404-0.894-0.755c0.768,0.14,1.336,0.124,1.998,0.081
							C499.572,217.097,500.23,217.008,501.008,217.049z"/>
					</g>
					<g>
						<path style="fill:#002762;" d="M496.413,213.872c0.42-0.414,0.921-0.655,1.445-0.821c0.527-0.172,1.099-0.115,1.651-0.073
							c0.554,0.049,1.112,0.163,1.627,0.393c0.509,0.242,0.956,0.614,1.241,1.071c0.014,0.023,0.008,0.053-0.016,0.068
							c-0.019,0.012-0.044,0.009-0.06-0.006c-0.774-0.722-1.824-0.834-2.792-0.747c-0.496,0.043-0.969,0.228-1.471,0.25
							c-0.505,0.03-1.019,0.056-1.597-0.042c-0.03-0.005-0.05-0.033-0.045-0.063C496.4,213.89,496.405,213.879,496.413,213.872z"/>
					</g>
					<g>
						<path style="fill:#002762;" d="M489.589,213.964c-0.578,0.098-1.092,0.071-1.597,0.042c-0.502-0.022-0.975-0.207-1.471-0.25
							c-0.969-0.086-2.018,0.025-2.793,0.747c-0.02,0.018-0.051,0.018-0.069-0.002c-0.016-0.016-0.017-0.041-0.006-0.06
							c0.286-0.457,0.732-0.829,1.241-1.071c0.515-0.23,1.073-0.344,1.627-0.393c0.552-0.042,1.124-0.099,1.651,0.073
							c0.525,0.166,1.025,0.407,1.446,0.821c0.021,0.021,0.022,0.056,0,0.077C489.61,213.957,489.599,213.962,489.589,213.964z"/>
					</g>
					<g>
						<path style="fill:#002762;" d="M493.731,226.117c0.908-0.059,1.669-0.151,2.371-0.437c0.35-0.135,0.693-0.301,1.023-0.522
							c0.342-0.208,0.658-0.472,1.049-0.729c-0.174,0.899-0.867,1.691-1.769,2.039C495.507,226.814,494.447,226.706,493.731,226.117
							z"/>
					</g>
					<path style="fill:#8A3D28;" d="M492.065,219.467c0.055,0.341-0.09,0.661-0.184,0.936l-0.316,0.794
						c-0.096,0.247-0.165,0.499-0.17,0.676c0.004,0.169,0.037,0.287,0.169,0.444l-0.023-0.021c0.217,0.174,0.55,0.332,0.857,0.417
						c0.316,0.092,0.644,0.144,0.977,0.155c0.334,0.027,0.67-0.012,1.011-0.044c0.34-0.046,0.68-0.114,1.027-0.188
						c-0.621,0.427-1.306,0.7-2.022,0.809c-0.358,0.039-0.724,0.05-1.09-0.017c-0.371-0.082-0.716-0.171-1.099-0.452l-0.023-0.022
						c-0.234-0.212-0.463-0.681-0.414-1.133c0.029-0.437,0.185-0.745,0.331-1.011c0.155-0.263,0.324-0.484,0.498-0.689
						C491.76,219.903,491.957,219.745,492.065,219.467z"/>
					<path style="fill:#8A3D28;" d="M492.291,215.042c0.161,0.271,0.333,0.52,0.461,0.849c0.066,0.158,0.142,0.325,0.143,0.511
						c-0.009,0.186-0.024,0.374-0.13,0.545h-0.037c-0.106-0.165-0.143-0.314-0.197-0.46c-0.044-0.145-0.034-0.305-0.057-0.462
						c-0.049-0.303-0.151-0.629-0.217-0.961L492.291,215.042z"/>
				</g>
			</g>
			<path style="fill:#F29E87;" d="M511.435,295.728c0,0,5.062-1.095,3.41-10.093c-1.241-6.756,0.725-17.402,0.261-25.572
				c-0.464-8.17-3.55-21.913-3.55-21.913c-4.276-1.65-6.722-3.473-6.722-3.473s-1.685-2.062-2.835-2.062v1.585
				c0,1.212-4.762,3.372-5.913,4.052l0,0c-1.354,0.799-2.241,2.202-2.382,3.768l-0.561,6.22l-0.561-6.22
				c-0.141-1.566-1.028-2.969-2.382-3.768l0,0c-1.151-0.68-5.724-2.738-6.167-4.052v-1.585c-1.222,0-2.525,2-2.525,2
				s-2.502,1.886-6.777,3.535c0,0-3.086,13.743-3.55,21.913c-0.464,8.169,1.502,18.816,0.261,25.572
				c-1.653,8.998,3.409,10.093,3.409,10.093H511.435z"/>
			<g>
				<g>
					<path style="fill:#B75135;" d="M525.694,287.971c-1.058-2.276-2.619-8.305-2.619-9.864c0-1.558,0-19.404,0-19.404h-9.704
						v29.268H525.694z"/>
					<path style="fill:#8A3D28;" d="M513.371,258.703h4.224c0,3.626,0,13.927,0,17.111c0,5.454,4.061,9.805,6.548,11.196
						l-0.583,0.96h-10.189V258.703z"/>
				</g>
				<g>
					<path style="fill:#F29E87;" d="M511.555,238.151c0,0,13.461,3.546,13.461,19.184v16.158c0,0.736-0.596,1.332-1.332,1.332
						h-10.312v-9.21C513.371,265.615,506.401,255.091,511.555,238.151z"/>
					<path style="fill:#EF886B;" d="M515.393,264.922c1.413,1.14,2.202,2.882,2.202,4.698v5.205h-4.224v-9.21
						c0,0-1.963-2.964-3.035-8.278C511.122,260.888,513.558,263.442,515.393,264.922z"/>
				</g>
			</g>
			<g>
				<path style="fill:#002762;" d="M458.483,330.528c0.623,3.711,3.071,6.809,6.834,6.809h52.88c8.099,0,13.554-5.964,10.854-13.922
					c-2.7-7.958-13.498-22.495-13.498-27.686H474.85c0,0-0.777,6.365-3.438,11.144C468.467,312.163,456.42,318.24,458.483,330.528z"
					/>
				<path style="fill:#011A3F;" d="M465.317,337.337h52.88c6.2,0,10.835-3.501,11.464-8.711c-1.107,3.341-12.208,4.102-12.49-2.095
					l-49.897-3.117c0,0-7.347,11.279-8.791,7.113C459.041,334.187,461.554,337.337,465.317,337.337z"/>
				<path style="fill:#AC4255;" d="M531.551,350.831h-76.002c-8.009,0-14.502-6.493-14.502-14.502l0,0
					c0-2.581,2.093-4.674,4.674-4.674h95.658c2.581,0,4.674,2.093,4.674,4.674l0,0C546.053,344.338,539.56,350.831,531.551,350.831z
					"/>
				<path style="fill:#011A3F;" d="M479.884,313.143c13.828,0,32.032-1.549,35.634,5.123l-29.854,5.149L479.884,313.143z"/>
			</g>
			<g>
				<g>
					<path style="fill:#011A3F;" d="M504.408,409.265l0.972,12.434c0,3.41-2.764,6.175-6.175,6.175h-5.716
						c-3.328,0-5.907-2.9-5.52-6.206c0.902-7.699,2.548-19.864,3.983-20.212L504.408,409.265z"/>
					<g>
						<path style="fill:#011A3F;" d="M471.541,415.269c-1.24,5.548-4.49,12.605,4.772,12.605h5.432c2.994,0,5.412-2.438,5.387-5.432
							c-0.032-3.835-0.043-8.984,0.068-13c0.202-7.327,0-10.562,0-10.562L471.541,415.269z"/>
						<path style="fill:#B75135;" d="M472.563,354.948c1.186,10.673,2.372,36.577,2.372,39.344c0,2.767-1.953,2.218-1.186,8.041
							c0.325,2.468-1.073,8.558-2.209,12.936c-0.644,2.483,1.224,4.906,3.79,4.906h6.413c1.981,0,3.65-1.479,3.888-3.445
							l7.489-61.781H472.563z"/>
					</g>
					<path style="fill:#B75135;" d="M493.12,354.948c0,0,0,33.244,0,37.865c0,3.989-2.746,15.833-3.616,23.872
						c-0.202,1.867,1.275,3.49,3.153,3.49h6.779c2.746,0,4.972-2.226,4.972-4.972v-13.517c0-2.588,1.109-4.067,0-7.394
						c-1.109-3.327,8.688-39.344,8.688-39.344H493.12z"/>
				</g>
				<path style="fill:#002762;" d="M457.475,354.948h61.322c0,0,1.508-9.178-0.6-17.611c-2.108-8.433,0.638-16.888-4.213-20.832
					c-4.665-3.792-14.434-1.731-19.441-1.731c-3.732,0-14.265-3.772-20.555,0C463.992,320.769,457.475,354.948,457.475,354.948z"/>
			</g>
			<g>
				<g>
					<path style="fill:#B75135;" d="M460.591,287.971c1.058-2.276,2.619-8.305,2.619-9.864c0-1.558,0-19.404,0-19.404h9.704v29.268
						H460.591z"/>
					<path style="fill:#8A3D28;" d="M472.914,258.703h-4.224c0,3.626,0,13.927,0,17.111c0,5.454-4.061,9.805-6.548,11.196
						l0.583,0.96h10.189V258.703z"/>
				</g>
				<g>
					<path style="fill:#F29E87;" d="M474.73,238.151c0,0-13.461,3.546-13.461,19.184v16.158c0,0.736,0.596,1.332,1.332,1.332h10.312
						v-9.21C472.914,265.615,479.884,255.091,474.73,238.151z"/>
					<path style="fill:#EF886B;" d="M470.892,264.922c-1.413,1.14-2.202,2.882-2.202,4.698v5.205h4.224v-9.21
						c0,0,1.962-2.964,3.035-8.278C475.163,260.888,472.727,263.442,470.892,264.922z"/>
				</g>
			</g>
			<rect x="472.914" y="245.845" style="fill:#FFFFFF;" width="40.457" height="43.708"/>
			<g>
				<g>
					<path style="fill:#B75135;" d="M469.095,286.714c-2.589,0-3.499,0-5.528,0c-2.029,0-5.321,2.099-5.321,7.207
						c0,5.108,5.464,7.837,9.241,7.557s10.579-8.577,10.579-8.577L469.095,286.714z"/>
					<path style="fill:#8A3D28;" d="M466.926,286.714c0.569,0-0.296,15.522-4.201,13.751c1.562,0.769,3.289,1.123,4.762,1.014
						c3.777-0.28,10.579-8.577,10.579-8.577l-8.971-6.187C468.211,286.714,467.53,286.714,466.926,286.714z"/>
				</g>
				<path style="fill:#B75135;" d="M485.401,289.016c1.095-0.685,0.822-1.438,0.822-1.438c1.986-1.232,1.096-2.191,1.096-2.191
					c1.027-0.958,0.274-2.191,0.274-2.191l-13.077,1.095v-0.822l2.602-1.369c0,0,2.396,0,4.724,0c2.328,0,1.78-2.465,1.78-2.465
					l-8.063-0.246c-0.597-0.018-1.19,0.098-1.736,0.339l-4.033,1.782c-0.624,0.275-1.026,0.893-1.026,1.575v1.754
					c0,0-0.137,0.89-0.89,1.232c-0.753,0.342-0.411,2.328,1.095,2.396c0,0,0.274,0.616-0.205,1.301
					c-0.479,0.685,0.685,2.191,1.849,2.123c0,0,1.096,2.602,2.876,2.739S485.401,289.016,485.401,289.016z"/>
			</g>
			<g>
				<g>
					<path style="fill:#B75135;" d="M517.189,286.714c2.589,0,3.499,0,5.528,0c2.029,0,5.321,2.099,5.321,7.207
						c0,5.108-5.464,7.837-9.241,7.557s-10.579-8.577-10.579-8.577L517.189,286.714z"/>
					<path style="fill:#8A3D28;" d="M519.359,286.714c-0.569,0,0.296,15.522,4.201,13.751c-1.562,0.769-3.289,1.123-4.762,1.014
						c-3.777-0.28-10.579-8.577-10.579-8.577l8.971-6.187C518.074,286.714,518.755,286.714,519.359,286.714z"/>
				</g>
				<path style="fill:#B75135;" d="M500.884,289.016c-1.095-0.685-0.822-1.438-0.822-1.438c-1.986-1.232-1.095-2.191-1.095-2.191
					c-1.027-0.958-0.274-2.191-0.274-2.191l13.077,1.095v-0.822l-2.602-1.369c0,0-2.396,0-4.724,0c-2.328,0-1.78-2.465-1.78-2.465
					l8.063-0.246c0.597-0.018,1.19,0.098,1.736,0.339l4.033,1.782c0.623,0.275,1.026,0.893,1.026,1.575v1.754
					c0,0,0.137,0.89,0.89,1.232c0.753,0.342,0.411,2.328-1.096,2.396c0,0-0.274,0.616,0.205,1.301
					c0.479,0.685-0.685,2.191-1.849,2.123c0,0-1.095,2.602-2.876,2.739C511.017,294.767,500.884,289.016,500.884,289.016z"/>
			</g>
			<path style="fill:#002762;" d="M496.428,195.815c-1.569-1.864-5.935-2.529-9.781-0.188c-3.087,1.879-4.62,4.98-4.62,4.98
				c-5.009,1.473-4.354,7.038-4.354,7.038c-7.35,5.703-0.955,12.931-4.065,15.83c-3.11,2.899,0,7.195,0,7.195
				c-9.727,1.419-6.855,12.359-6.855,12.359l0.704-0.495c3.552-2.494,7.786-3.832,12.126-3.832h2.798
				c1.609,0,3.186-0.699,4.115-2.013c2.24-3.169-0.611-7.111-0.611-7.111c1.851-4.621-2.128-5.893-2.193-10.113
				c-0.065-4.22,2.956-4.995,2.956-4.995c4.201,1.588,4.466-3.553,4.466-3.553c2.611,1.801,7.865-0.655,7.06-3.765
				c0,0,2.336,0.061,2.835,3.663c0,0-1.361,4.598,2.3,6.744c0,0,0.564,1.217-0.967,3.309c-1.531,2.092-2.984,5.636-0.602,8.658
				c0,0-0.4,0.441-0.877,1.197c-2.186,3.46,0.328,7.978,4.421,7.978h1.42c4.34,0,8.574,1.338,12.126,3.832l0.704,0.495
				c0,0,2.872-10.941-6.855-12.359c0,0,3.11-4.296,0-7.195c-3.11-2.899,3.285-10.127-4.065-15.83c0,0,0.655-5.565-4.354-7.038
				c0,0-0.77-4.753-7.83-4.753V195.815z"/>
		</g>
		<g>
			<rect x="64.627" y="82.126" style="fill:#FFFFFF;" width="134.39" height="345.748"/>
			<rect x="73.115" y="93.46" style="fill:#AC4255;" width="113.909" height="334.415"/>
			<polygon style="fill:#F29E87;" points="79.122,103.419 183.608,99.89 183.608,427.874 79.122,427.874 			"/>
		</g>
		<g>
			<g>
				
					<rect x="97.792" y="169.877" transform="matrix(0.9962 -0.0872 0.0872 0.9962 -16.1601 12.2741)" style="fill:#FCEBE7;" width="69.129" height="42.319"/>
				
					<text transform="matrix(0.9962 -0.0872 0.0872 0.9962 108.2027 204.1909)" style="fill:#AC4255; font-family:'OpenSans-Extrabold'; font-size:28.9035px;">Job</text>
			</g>
			<path style="fill:none;stroke:#FCEBE7;stroke-miterlimit:10;" d="M100.934,173.105l26.379-26.825
				c0.676-0.688,1.753-0.779,2.536-0.214l31.781,22.946"/>
			<path style="fill:#AC4255;" d="M130.601,147.516c0,1.074-0.871,1.945-1.945,1.945s-1.945-0.871-1.945-1.945
				s0.871-1.945,1.945-1.945S130.601,146.442,130.601,147.516z"/>
		</g>
		<g>
			<circle style="fill:#FFFFFF;" cx="316.603" cy="127.668" r="29.849"/>
			<circle style="fill:#AC4255;" cx="316.603" cy="127.668" r="24.208"/>
			<circle style="fill:#FCEBE7;" cx="316.603" cy="127.88" r="23.036"/>
			<path style="fill:#F29E87;" d="M316.503,129.346c-0.16-1.672-0.265-3.343-0.4-5.015l-0.3-5.015
				c-0.087-1.672-0.347-3.343-0.2-5.015c0.135-1.672,0.348-3.343,0.9-5.015h0.2c0.552,1.672,0.765,3.343,0.9,5.015
				c0.147,1.672-0.113,3.343-0.2,5.015l-0.3,5.015c-0.135,1.672-0.24,3.343-0.4,5.015H316.503z"/>
			<path style="fill:#F29E87;" d="M317.604,128.811c-1.142-0.916-2.245-1.87-3.369-2.803l-3.298-2.874
				c-1.09-0.967-2.303-1.812-3.228-2.945c-0.934-1.124-1.811-2.304-2.45-3.723l0.141-0.141c1.419,0.639,2.599,1.516,3.723,2.45
				c1.133,0.925,1.978,2.138,2.945,3.228l2.874,3.298c0.934,1.124,1.888,2.227,2.803,3.369L317.604,128.811z"/>
		</g>
		<g>
			<g>
				<path style="fill:#AC4255;" d="M673.367,246.202c0,0,7.567,4.152,5.014-1.964c2.374,2.186,4.529,4.215,6.736,6.041
					c2.167,1.84,4.356,3.491,6.307,5.098c3.901,3.213,7.498,6.033,10.118,9.108c-3.917,4.04-6.264,8.372-7.635,11.677
					c-0.672,1.651-1.197,3.074-1.482,4.068c-0.298,0.997-0.413,1.58-0.413,1.58s0.555-1.875,2.337-4.591
					c1.725-2.699,4.629-6.251,9.465-9.631c3.233,5.136,3.86,11.388,0.06,20.523c-1.747,4.027-3.306,7.722-4.656,11.21
					c-1.44,3.505-2.64,6.797-3.542,9.987c-0.43,1.592-0.868,3.171-1.217,4.737c-0.347,1.566-0.613,3.12-0.791,4.677
					c-0.107,0.868-0.166,1.735-0.209,2.606c2.357,18.645,3.066,37.448,2.025,56.05l-0.973-0.056
					C696.984,333.131,689.672,287.79,673.367,246.202z"/>
				<g>
					<path style="fill:#FFFFFF;" d="M660.629,236.396c-0.031-1.904,0.424-3.895,1.164-5.993c0.708-2.083,1.666-4.258,2.726-6.561
						c-2.486-2.249-4.787-4.035-7.045-5.337c-2.235-1.314-4.252-2.237-5.947-2.883c-3.39-1.29-5.504-1.491-5.504-1.491
						c6.417,7.897,8.401,15.32,9.89,23.089c0.377,1.946,0.75,3.908,1.183,5.909c0.405,2.014,0.8,4.097,1.358,6.228
						c1.17,4.245,2.531,8.862,4.995,13.983c4.784,10.546,11.384,20.992,17.366,32.414c5.96,11.379,11.331,23.747,13.256,36.991
						c-0.832-6.605-2.185-18.239-4.265-30.652c-1.998-12.43-4.594-25.629-5.804-35.895c-0.648-4.976-1.485-9.59-2.753-13.725
						c-0.602-2.079-1.245-4.061-1.922-5.948c-0.737-1.863-1.513-3.629-2.307-5.303c-0.795-1.674-1.613-3.255-2.446-4.746
						c-0.881-1.47-1.788-2.847-2.693-4.14c-1.838-2.574-3.595-4.854-5.528-6.731C663.572,228.716,661.205,233.32,660.629,236.396z"
						/>
				</g>
			</g>
			<g>
				<path style="fill:#F29E87;" d="M704.85,305.383c0.405-2.137,0.893-4.283,1.31-6.443c0.903-4.327,2.07-8.77,3.45-13.494
					c1.228-4.696,2.621-9.665,4.186-15.092c3.282-12.298,2.595-21.068-0.537-28.427c-4.133,4.248-6.544,8.879-7.969,12.438
					c-1.519,3.591-1.977,6.126-1.977,6.126s0.091-0.794,0.337-2.143c0.224-1.343,0.696-3.272,1.211-5.478
					c1.075-4.422,2.967-10.181,6.252-15.427c-0.304-0.56-0.619-1.116-0.945-1.671c-0.343-0.548-0.709-1.089-1.078-1.631
					c-0.741-1.084-1.522-2.166-2.336-3.257c-1.629-2.181-3.394-4.397-5.251-6.742c-0.904-1.183-1.931-2.355-2.963-3.575
					c-1.031-1.221-2.083-2.485-3.15-3.804c-1.067-1.319-2.148-2.692-3.24-4.133c-0.552-0.717-1.08-1.465-1.659-2.206
					c-0.58-0.741-1.171-1.495-1.772-2.263c2.984,8.395,9.202,49.303,11.963,72.838c0.059,0.691,0.119,1.382,0.173,2.073
					c0.477,3.931,0.616,7.89,0.917,11.719c0.14,1.916,0.278,3.808,0.414,5.667c0.035,0.465,0.07,0.927,0.105,1.387
					c0.017,0.463,0.033,0.923,0.05,1.381c0.033,0.916,0.066,1.823,0.099,2.719c0.138,3.342,0.27,6.533,0.393,9.535
					c0.238,24.049-2.032,49.371-6.73,77.495l0.929,0.156c4.876-29.193,7.144-55.376,6.71-80.25c0.039-0.365,0.075-0.73,0.122-1.095
					C704.119,309.647,704.449,307.519,704.85,305.383z"/>
				<g>
					<path style="fill:#FFFFFF;" d="M671.618,196.813c-0.296-2.524-0.161-5.148,0.215-7.91c0.325-2.725,0.832-5.546,1.427-8.553
						c-1.324-1.522-2.603-2.874-3.828-4.075c-0.612-0.6-1.211-1.162-1.795-1.689c-0.586-0.524-1.207-0.973-1.783-1.412
						c-2.328-1.735-4.375-2.952-6.069-3.805c-3.386-1.702-5.376-1.97-5.376-1.97c7.467,10.242,10.605,19.988,13.03,30.322
						c0.614,2.588,1.227,5.195,1.901,7.852c0.627,2.688,1.197,5.501,1.952,8.366c1.6,5.685,3.172,12.001,5.853,19.027
						c5.061,14.549,11.289,29.352,16.436,45.668c2.635,8.129,4.785,16.636,6.542,25.434c0.758,4.412,1.475,8.891,2.042,13.431
						c0.401,4.549,0.699,9.157,0.859,13.803c-0.091-9.267-0.162-25.603-1.692-43.005c-0.803-8.682-1.622-17.684-2.738-26.208
						c-0.259-2.136-0.455-4.266-0.722-6.337c-0.301-2.06-0.584-4.09-0.845-6.078c-0.261-1.989-0.5-3.936-0.716-5.832
						c-0.104-0.95-0.207-1.885-0.308-2.803c-0.127-0.909-0.251-1.803-0.373-2.678c-0.455-3.417-0.958-6.712-1.501-9.88
						c-0.139-0.791-0.278-1.575-0.415-2.352c-0.152-0.771-0.34-1.518-0.512-2.266c-0.352-1.492-0.712-2.953-1.079-4.382
						c-0.734-2.858-1.497-5.588-2.28-8.19c-0.883-2.55-1.798-4.966-2.714-7.262c-0.918-2.295-1.846-4.467-2.776-6.516
						c-1.01-2.002-2.039-3.872-3.049-5.635c-1.013-1.761-2.02-3.407-3.013-4.944c-0.5-0.766-0.982-1.515-1.488-2.218
						c-0.525-0.69-1.045-1.353-1.56-1.992C673.235,186.721,671.709,192.763,671.618,196.813z"/>
				</g>
			</g>
			<path style="fill:#F29E87;" d="M674.578,336.006l4.983,81.387c0.357,5.887,5.235,10.481,11.133,10.481h18.46
				c2.565,0,4.941-0.872,6.833-2.334c2.449-1.913,4.1-4.825,4.299-8.147l4.994-81.387H674.578z"/>
		</g>
	</g>
</g>
</svg>
