<?xml version="1.0" standalone="no"?><!DOCTYPE svg PUBLIC "-//W3C//DTD SVG 1.1//EN" "http://www.w3.org/Graphics/SVG/1.1/DTD/svg11.dtd"><svg t="1692600117655" class="icon" viewBox="0 0 1024 1024" version="1.1" xmlns="http://www.w3.org/2000/svg" p-id="4216" xmlns:xlink="http://www.w3.org/1999/xlink" width="200" height="200"><path d="M512 512m-512 0a512 512 0 1 0 1024 0 512 512 0 1 0-1024 0Z" fill="#3AD0F9" p-id="4217"></path><path d="M508.8 568c-131.2 0-246.4-87.2-281.6-211.2-0.8-4 1.6-8.8 5.6-9.6 4-1.6 8.8 1.6 9.6 5.6C276 469.6 385.6 552 508.8 552c123.2 0 232-81.6 265.6-198.4 1.6-4 5.6-6.4 9.6-5.6 4 1.6 6.4 5.6 5.6 9.6C754.4 481.6 639.2 568 508.8 568z" fill="#663210" p-id="4218"></path><path d="M344 647.2c-4.8 0-8-3.2-8-8V509.6c0-4.8 3.2-8 8-8s8 3.2 8 8v129.6c0 4-3.2 8-8 8zM680 647.2c-4.8 0-8-3.2-8-8V509.6c0-4.8 3.2-8 8-8s8 3.2 8 8v129.6c0 4-3.2 8-8 8zM456 647.2c-4.8 0-8-3.2-8-8v-80c0-4.8 3.2-8 8-8s8 3.2 8 8v80c0 4-3.2 8-8 8zM568 647.2c-4.8 0-8-3.2-8-8v-80c0-4.8 3.2-8 8-8s8 3.2 8 8v80c0 4-3.2 8-8 8zM237.6 348.8c-4-0.8-8.8 1.6-9.6 5.6C198.4 459.2 108 536 2.4 551.2c0.8 5.6 0.8 10.4 1.6 16 112.8-16 208-97.6 240-208.8 0-4-2.4-8.8-6.4-9.6zM1022.4 552c-108-14.4-202.4-92.8-232-200-0.8-4-5.6-6.4-9.6-5.6-4 0.8-6.4 5.6-5.6 9.6 32 112.8 131.2 196 246.4 211.2 0-4 0-9.6 0.8-15.2z" fill="#663210" p-id="4219"></path><path d="M896 647.2c-4.8 0-8-3.2-8-8V516c0-4.8 3.2-8 8-8s8 3.2 8 8v123.2c0 4-3.2 8-8 8zM128 647.2c-4.8 0-8-3.2-8-8V509.6c0-4.8 3.2-8 8-8s8 3.2 8 8v129.6c0 4-3.2 8-8 8z" fill="#663210" p-id="4220"></path><path d="M768 256c0-8.8-4.8-16-18.4-16H638.4c-13.6 0-22.4 5.6-22.4 14.4S604.8 272 593.6 272s-17.6 7.2-17.6 16 8.8 16 21.6 16h80c13.6 0 26.4-8.8 26.4-17.6s8.8-14.4 21.6-14.4h24c13.6 0 18.4-7.2 18.4-16zM456 184c0-8.8-12-16-22.4-16h-15.2c-9.6 0-18.4-8-18.4-16s-8-16-18.4-16h-104c-9.6 0-18.4 8-18.4 16s-8 16-18.4 16h-18.4c-9.6 0-16.8 7.2-16.8 16s7.2 16 16.8 16h51.2c9.6 0 20 8.8 20 16s-10.4 15.2-20 15.2h-8.8c-9.6 0-18.4 7.2-18.4 16s8 16.8 18.4 16.8h49.6c9.6 0 18.4-7.2 18.4-15.2 0-8 8-8.8 18.4-8.8h6.4c9.6 0 18.4-16 18.4-24 0-9.6 8-16 18.4-16h39.2c10.4 0 22.4-7.2 22.4-16z" fill="#FFFFFF" p-id="4221"></path><path d="M235.2 790.4c-8.8 0-16-7.2-16-16V353.6c0-8.8 7.2-16 16-16s16 7.2 16 16v420c0 9.6-7.2 16.8-16 16.8zM783.2 798.4c-8.8 0-16-7.2-16-16V361.6c0-8.8 7.2-16 16-16s16 7.2 16 16v420c0 9.6-7.2 16.8-16 16.8z" fill="#FF4848" p-id="4222"></path><path d="M235.2 806.4c-12.8 0-27.2-10.4-27.2-24.8V352.8c0-14.4 11.2-24.8 24-24.8s24 9.6 24 24.8v429.6c0 14.4-8 24-20.8 24zM232.8 344c-4 0-8.8 4.8-8.8 8v429.6c0 4 6.4 8 11.2 8 0.8 0 4.8 0 4.8-8V352.8c0-4.8-3.2-8.8-7.2-8.8zM783.2 806.4c-12.8 0-23.2-10.4-23.2-24V360c0-13.6 10.4-24 23.2-24 13.6 0 24.8 11.2 24.8 24v422.4c0 12.8-11.2 24-24.8 24zM784 352c-4.8 0-8 4-8 8v422.4c0 4 2.4 8 7.2 8 4.8 0 8.8-4 8.8-8V360c0-4-3.2-8-8-8zM17.6 551.2c-4.8 0-9.6 3.2-9.6 8v42.4c2.4 15.2 6.4 30.4 10.4 44.8 4 0 5.6-4 5.6-8v-80c0-4-2.4-7.2-6.4-7.2z" fill="#663210" p-id="4223"></path><path d="M512 1024c188.8 0 354.4-102.4 442.4-255.2-8.8-4-20.8-2.4-27.2 7.2-8.8 13.6-24 13.6-32.8 0-8.8-13.6-24-13.6-32.8 0-8.8 13.6-24 13.6-32.8 0-8.8-13.6-24-13.6-32.8 0-8.8 13.6-24 13.6-32.8 0-8.8-13.6-24-13.6-32.8 0-8.8 13.6-24 13.6-32.8 0s-24-13.6-32.8 0c-8.8 13.6-24 13.6-32.8 0-8.8-13.6-24-13.6-32.8 0s-24 13.6-32.8 0c-8.8-13.6-24-13.6-32.8 0-8.8 13.6-24 13.6-32.8 0-8.8-13.6-24-13.6-32.8 0-8.8 13.6-24 13.6-32.8 0-8.8-13.6-24-13.6-32.8 0-8.8 13.6-24 13.6-32.8 0-8.8-13.6-24-13.6-32.8 0s-24 13.6-32.8 0c-8.8-13.6-24-13.6-32.8 0-8.8 13.6-24 13.6-32.8 0-8.8-13.6-24-13.6-32.8 0-8.8 13.6-24 13.6-32.8 0-8.8-13.6-24-13.6-32.8 0-8.8 13.6-24 13.6-32.8 0-8-11.2-20-12.8-29.6-4C160 922.4 324 1024 512 1024z" fill="#28A5C6" p-id="4224"></path><path d="M717.6 872c-8.8 0-17.6-4-23.2-12-5.6-7.2-14.4-7.2-20 0s-14.4 12-23.2 12c-8.8 0-17.6-4-23.2-12-5.6-7.2-14.4-7.2-20 0-2.4 3.2-8 4-11.2 1.6-4-2.4-4.8-6.4-2.4-9.6 5.6-7.2 14.4-12 23.2-12 8.8 0 17.6 4 23.2 12 3.2 4 6.4 5.6 10.4 5.6s7.2-2.4 10.4-5.6c5.6-7.2 14.4-12 23.2-12 8.8 0 17.6 4 23.2 12 5.6 7.2 14.4 7.2 20 0s14.4-12 23.2-12c8.8 0 17.6 4 23.2 12 2.4 3.2 1.6 8-2.4 9.6-4 2.4-8.8 1.6-11.2-1.6-5.6-7.2-14.4-7.2-20 0-5.6 8-14.4 12-23.2 12zM416.8 904c-8.8 0-16.8-4-22.4-12-5.6-7.2-13.6-7.2-19.2 0s-13.6 12-22.4 12c-8.8 0-16.8-4-22.4-12-2.4-3.2-1.6-8 2.4-9.6 3.2-2.4 8.8-1.6 11.2 1.6 3.2 4 6.4 5.6 9.6 5.6 3.2 0 7.2-2.4 9.6-5.6 5.6-7.2 13.6-12 22.4-12 8.8 0 16.8 4 22.4 12 5.6 7.2 13.6 7.2 19.2 0s13.6-12 22.4-12c8.8 0 16.8 4 22.4 12 2.4 3.2 1.6 8-1.6 9.6-3.2 2.4-8.8 1.6-11.2-1.6-5.6-7.2-13.6-7.2-19.2 0-6.4 8-14.4 12-23.2 12z" fill="#FFFFFF" opacity=".5" p-id="4225"></path><path d="M1008 559.2c0-4.8-3.2-8-8-8s-8 3.2-8 8v80c0 4.8 3.2 8 8 8 0.8 0 2.4 0 3.2-0.8 1.6-6.4 3.2-13.6 4.8-20v-67.2z" fill="#663210" p-id="4226"></path><path d="M21.6 660h980c3.2-10.4 5.6-21.6 8.8-32H13.6c2.4 10.4 4.8 21.6 8 32z" fill="#FF4848" p-id="4227"></path><path d="M576 952c-8.8 0-16.8-4-22.4-12-5.6-7.2-13.6-7.2-19.2 0-2.4 3.2-7.2 4-11.2 1.6-3.2-2.4-4.8-6.4-1.6-9.6 5.6-7.2 13.6-12 22.4-12 8.8 0 16.8 4 22.4 12 2.4 4 6.4 5.6 9.6 5.6 3.2 0 7.2-2.4 9.6-5.6 5.6-7.2 13.6-12 22.4-12 8.8 0 16.8 4 22.4 12 2.4 3.2 1.6 8-1.6 9.6-3.2 2.4-8 1.6-11.2-1.6-5.6-7.2-13.6-7.2-19.2 0-5.6 8-13.6 12-22.4 12zM240 848c-8.8 0-16.8-4-22.4-12-5.6-7.2-13.6-7.2-19.2 0-2.4 3.2-7.2 4-11.2 1.6-3.2-2.4-4.8-6.4-1.6-9.6 5.6-7.2 13.6-12 22.4-12 8.8 0 16.8 4 22.4 12 2.4 4 6.4 5.6 9.6 5.6 3.2 0 7.2-2.4 9.6-5.6 5.6-7.2 13.6-12 22.4-12 8.8 0 16.8 4 22.4 12 2.4 3.2 1.6 8-1.6 9.6-3.2 2.4-8 1.6-11.2-1.6-5.6-7.2-13.6-7.2-19.2 0-5.6 8-13.6 12-22.4 12z" fill="#FFFFFF" opacity=".5" p-id="4228"></path><path d="M560 480c-17.6 0-32-14.4-32-32s14.4-32 32-32 32 14.4 32 32-14.4 32-32 32z m0-48c-8.8 0-16 7.2-16 16s7.2 16 16 16 16-7.2 16-16-7.2-16-16-16zM432.8 354.4c0-3.2-3.2-6.4-8-7.2l-15.2-2.4c-4-0.8-8.8-4.8-8.8-8.8l-2.4-15.2c-0.8-4-4-8-7.2-8s-6.4 3.2-7.2 8l-1.6 15.2c-0.8 4-4.8 8.8-8.8 8.8l-15.2 2.4c-4 0.8-8 4-8 7.2s3.2 6.4 8 7.2l15.2 2.4c4 0.8 8.8 4.8 8.8 8.8l2.4 15.2c0.8 4 4 8 7.2 8s6.4-3.2 6.4-8l2.4-16.8c0.8-4 4.8-8 8.8-8.8l14.4-0.8c4.8-0.8 8.8-4 8.8-7.2zM932.8 302.4c0-3.2-3.2-6.4-8-7.2l-15.2-2.4c-4-0.8-8.8-4.8-8.8-8.8l-2.4-15.2c-0.8-4-4-8-7.2-8s-6.4 3.2-7.2 8l-2.4 15.2c-0.8 4-4.8 8.8-8.8 8.8l-15.2 2.4c-4 0.8-8 4-8 7.2s3.2 6.4 8 7.2l15.2 2.4c4 0.8 8.8 4.8 8.8 8.8l2.4 15.2c0.8 4 4 8 7.2 8s6.4-3.2 6.4-8l2.4-16.8c0.8-4 4.8-8 8.8-8.8l14.4-0.8c6.4-0.8 9.6-4 9.6-7.2z" fill="#FFFFFF" p-id="4229"></path><path d="M896 143.2c0 38.4-36 72.8-74.4 72.8S752 182.4 752 143.2c0-38.4 31.2-71.2 69.6-71.2s74.4 32.8 74.4 71.2z" fill="#FBD000" p-id="4230"></path><path d="M944 760c-8.8 0-17.6 4-23.2 12-5.6 7.2-14.4 7.2-20 0s-14.4-12-23.2-12c-8.8 0-17.6 4-23.2 12-5.6 7.2-14.4 7.2-20 0s-14.4-12-23.2-12c-8.8 0-17.6 4-23.2 12-5.6 7.2-14.4 7.2-20 0S753.6 760 744.8 760c-8.8 0-17.6 4-23.2 12-5.6 7.2-14.4 7.2-20 0-4.8-8-13.6-12-22.4-12-8.8 0-17.6 4-23.2 12-3.2 4-6.4 5.6-9.6 5.6-3.2 0-7.2-2.4-9.6-5.6-5.6-7.2-14.4-12-23.2-12-8.8 0-17.6 4-23.2 12-3.2 4-6.4 5.6-9.6 5.6-3.2 0-7.2-2.4-9.6-5.6-5.6-7.2-14.4-12-23.2-12-8.8 0-17.6 4-23.2 12-5.6 7.2-14.4 7.2-20 0S490.4 760 481.6 760c-8.8 0-17.6 4-23.2 12-5.6 7.2-14.4 7.2-20 0-6.4-8-15.2-12-24-12s-17.6 4-23.2 12c-3.2 4-6.4 5.6-9.6 5.6-3.2 0-7.2-2.4-9.6-5.6-5.6-7.2-14.4-12-23.2-12-8.8 0-17.6 4-23.2 12-3.2 4-6.4 5.6-9.6 5.6-3.2 0-7.2-2.4-9.6-5.6-5.6-7.2-14.4-12-23.2-12-8.8 0-17.6 4-23.2 12-5.6 7.2-14.4 7.2-20 0-6.4-8-15.2-12-24-12s-17.6 4-23.2 12c-5.6 7.2-14.4 7.2-20 0S158.4 760 149.6 760c-8.8 0-17.6 4-23.2 12-3.2 4-6.4 5.6-9.6 5.6-3.2 0-7.2-2.4-9.6-5.6-5.6-7.2-14.4-12-23.2-12-6.4 0-12 2.4-16.8 5.6 2.4 4 5.6 8.8 8 12.8 5.6-5.6 13.6-5.6 18.4 1.6 5.6 7.2 14.4 12 23.2 12 8.8 0 17.6-4 23.2-12 3.2-4 6.4-5.6 9.6-5.6 3.2 0 7.2 2.4 9.6 5.6 5.6 7.2 14.4 12 23.2 12 8.8 0 17.6-4 23.2-12 5.6-7.2 14.4-7.2 20 0 6.4 8 14.4 12 23.2 12 8.8 0 17.6-4 23.2-12 5.6-7.2 14.4-7.2 20 0s14.4 12 23.2 12c8.8 0 17.6-4 23.2-12 5.6-7.2 14.4-7.2 20 0s14.4 12 23.2 12c8.8 0 17.6-4 23.2-12 5.6-7.2 14.4-7.2 20 0S439.2 792 448 792c8.8 0 17.6-4 23.2-12 5.6-7.2 14.4-7.2 20 0s14.4 12 23.2 12c8.8 0 17.6-4 23.2-12 3.2-4 6.4-5.6 9.6-5.6 3.2 0 7.2 2.4 9.6 5.6 5.6 7.2 14.4 12 23.2 12 8.8 0 17.6-4 23.2-12 3.2-4 6.4-5.6 9.6-5.6 3.2 0 7.2 2.4 9.6 5.6 5.6 7.2 14.4 12 23.2 12 8.8 0 17.6-4 23.2-12 5.6-7.2 14.4-7.2 20 0S703.2 792 712 792c8.8 0 17.6-4 23.2-12 5.6-7.2 14.4-7.2 20 0s14.4 12 23.2 12c8.8 0 17.6-4 23.2-12 5.6-7.2 14.4-7.2 20 0s14.4 12 23.2 12c8.8 0 17.6-4 23.2-12 5.6-7.2 14.4-7.2 20 0s14.4 12 23.2 12c8.8 0 17.6-4 23.2-12 4-4.8 11.2-5.6 16-4l7.2-12c-4-1.6-9.6-4-13.6-4zM14.4 632h995.2c1.6-5.6 2.4-10.4 4-16H10.4c1.6 5.6 2.4 10.4 4 16zM25.6 672h972.8c1.6-5.6 3.2-10.4 4.8-16H20.8c1.6 5.6 3.2 10.4 4.8 16z" fill="#663210" p-id="4231"></path></svg>