<svg t="1693296664703" class="icon" viewBox="0 0 1024 1024" version="1.1" xmlns="http://www.w3.org/2000/svg" p-id="17515" width="200" height="200"><path d="M846.506667 213.333333H177.493333a6.826667 6.826667 0 0 0-6.826666 6.826667v54.272c0 3.712 3.072 6.784 6.826666 6.784h669.013334a6.826667 6.826667 0 0 0 6.826666-6.826667V220.16A6.826667 6.826667 0 0 0 846.506667 213.333333z m0 529.493334H177.493333a6.826667 6.826667 0 0 0-6.826666 6.741333v54.314667c0 3.712 3.072 6.784 6.826666 6.784h669.013334a6.826667 6.826667 0 0 0 6.826666-6.826667v-54.272a6.826667 6.826667 0 0 0-6.826666-6.784z m0-264.789334H177.493333a6.826667 6.826667 0 0 0-6.826666 6.826667v54.272c0 3.754667 3.072 6.826667 6.826666 6.826667h669.013334a6.826667 6.826667 0 0 0 6.826666-6.826667v-54.272a6.826667 6.826667 0 0 0-6.826666-6.826667z" fill="#5e45e7" p-id="17516"></path></svg>