<!DOCTYPE svg PUBLIC "-//W3C//DTD SVG 1.1//EN" "http://www.w3.org/Graphics/SVG/1.1/DTD/svg11.dtd">
<!-- Uploaded to: SVG Repo, www.svgrepo.com, Transformed by: SVG Repo Mixer Tools -->
<svg height="800px" width="800px" version="1.1" id="Layer_1" xmlns="http://www.w3.org/2000/svg" xmlns:xlink="http://www.w3.org/1999/xlink" viewBox="0 0 512.002 512.002" xml:space="preserve" fill="#000000">
<g id="SVGRepo_bgCarrier" stroke-width="0"/>
<g id="SVGRepo_tracerCarrier" stroke-linecap="round" stroke-linejoin="round"/>
<g id="SVGRepo_iconCarrier"> <path style="fill:#FF9ECA;" d="M296.053,124.251v307.938c0,11.091,8.991,20.083,20.083,20.083h56.391 c11.091,0,20.083-8.991,20.083-20.083V124.251H296.053z"/> <path style="fill:#FFE97C;" d="M296.053,124.251v10.828l-19.697,13.337c-44.074,29.842-80.995,69.073-108.11,114.876l-3.317,5.602 C132.684,323.364,95.952,375.05,55.115,423.414l-20.168,23.885c-2.662,3.153-6.578,4.972-10.705,4.972l0,0 c-11.824,0-18.331-13.742-10.839-22.889l30.813-37.614c33.694-41.13,64.464-84.569,92.086-130l12.327-20.274 c27.436-45.125,64.45-83.67,108.425-112.913l6.511-4.329h32.487V124.251z"/> <g> <path style="fill:#4D1E1E;" d="M501.8,442.072h-2.435v-317.82v-14.363c0-33.28-27.076-60.357-60.357-60.357h-92.796 c-33.28,0-60.357,27.076-60.357,60.357v4.164h-22.287c-2.009,0-3.974,0.594-5.647,1.706l-6.511,4.329 c-44.916,29.867-83.469,70.016-111.493,116.107l-12.327,20.274c-27.28,44.868-57.985,88.215-91.261,128.836L5.516,422.919 c-5.99,7.312-7.197,17.16-3.153,25.703c4.045,8.543,12.43,13.849,21.881,13.849c7.145,0,13.887-3.131,18.498-8.591l20.168-23.885 c14.981-17.742,29.45-35.996,43.369-54.679v75.603c0,5.633,4.566,10.199,10.199,10.199s10.199-4.566,10.199-10.199v-103.87 c16.604-23.75,32.319-48.11,47.03-72.96l3.317-5.602c8.24-13.919,17.487-27.279,27.617-39.956v223.288 c0,5.633,4.566,10.199,10.199,10.199c5.633,0,10.199-4.566,10.199-10.199V205.19c17.254-18.091,36.412-34.363,57.037-48.328 l3.781-2.56v277.886c0,16.698,13.584,30.282,30.282,30.282h56.391c16.698,0,30.282-13.584,30.282-30.282V409.68h76.158v32.392 h-2.435c-5.633,0-10.199,4.566-10.199,10.199c0,5.633,4.566,10.199,10.199,10.199h25.267c5.633,0,10.199-4.566,10.199-10.199 C512.002,446.638,507.432,442.072,501.8,442.072z M270.638,139.971c-45.026,30.486-83.467,71.333-111.169,118.125l-3.317,5.602 c-31.864,53.824-68.479,105.346-108.831,153.135l-20.168,23.885c-0.726,0.86-1.787,1.353-2.912,1.353 c-2.099,0-3.06-1.366-3.444-2.181c-0.385-0.815-0.833-2.422,0.497-4.047l30.813-37.614c33.878-41.356,65.137-85.485,92.91-131.165 l12.327-20.274c26.482-43.555,62.915-81.494,105.358-109.718l3.945-2.623h12.144L270.638,139.971z M478.967,134.45v24.721h-76.158 V134.45H478.967z M402.809,225.591h76.158v25.624h-76.158V225.591z M478.967,205.193h-76.158v-25.624h76.158V205.193z M402.809,271.614h76.158v25.624h-76.158V271.614z M402.809,317.636h76.158v25.624h-76.158V317.636z M306.252,109.888 c0-22.034,17.926-39.959,39.959-39.959h92.796c22.034,0,39.959,17.926,39.959,39.959v4.164h-76.158v-9.653 c0-5.633-4.566-10.199-10.199-10.199s-10.199,4.566-10.199,10.199v9.653h-76.158v-4.164H306.252z M306.252,134.45h76.158v297.739 c0,5.45-4.434,9.884-9.884,9.884h-56.391c-5.45,0-9.884-4.434-9.884-9.884L306.252,134.45L306.252,134.45z M402.809,389.282 v-25.624h76.158v25.624H402.809z"/> <path style="fill:#4D1E1E;" d="M325.832,432.24c5.633,0,10.199-4.566,10.199-10.199v-64.972c0-5.633-4.566-10.199-10.199-10.199 c-5.633,0-10.199,4.566-10.199,10.199v64.973C315.633,427.674,320.2,432.24,325.832,432.24z"/> <path style="fill:#4D1E1E;" d="M325.832,335.683c5.633,0,10.199-4.566,10.199-10.199v-5.415c0-5.633-4.566-10.199-10.199-10.199 c-5.633,0-10.199,4.566-10.199,10.199v5.415C315.633,331.117,320.2,335.683,325.832,335.683z"/> </g> </g>
</svg>