<svg t="1695260715755" class="icon" viewBox="0 0 1024 1024" version="1.1" xmlns="http://www.w3.org/2000/svg" p-id="1734" width="200" height="200"><path d="M654.29678 144.196H512.00078V59.348h142.296a13.772 13.772 0 0 1 13.772 13.772v57.304a13.772 13.772 0 0 1-13.772 13.772z" fill="#FBAB5F" p-id="1735"></path><path d="M512.00078 59.348h56.1v84.84H512.00078z" opacity=".1" p-id="1736"></path><path d="M512.00078 229.41a15 15 0 0 1-15-15V42.638a15 15 0 0 1 30 0v171.772c0 8.286-6.714 15-15 15z" fill="#4A5058" p-id="1737"></path><path d="M93.93478 468.5h836.12v527.86H93.93478z" fill="#F1F1F1" p-id="1738"></path><path d="M296.97678 904.386H209.70078a15 15 0 0 1 0-30h87.276c8.284 0 15 6.714 15 15s-6.716 15-15 15zM296.97678 850.686H209.70078c-8.284 0-15-6.714-15-15s6.716-15 15-15h87.276c8.284 0 15 6.714 15 15s-6.716 15-15 15z" opacity=".1" p-id="1739"></path><path d="M253.33878 904.386a15 15 0 0 1-15-15v-53.702a15 15 0 0 1 15-15 15 15 0 0 1 15 15v53.702a15 15 0 0 1-15 15z" opacity=".1" p-id="1740"></path><path d="M847.47878 909.316h-82.37c-8.286 0-15-6.714-15-15s6.714-15 15-15h82.37c8.284 0 15 6.714 15 15s-6.714 15-15 15zM821.56878 855.618h-83.276c-8.286 0-15-6.714-15-15s6.714-15 15-15h83.276c8.286 0 15 6.714 15 15a15 15 0 0 1-15 15z" opacity=".1" p-id="1741"></path><path d="M789.93278 909.316a14.998 14.998 0 0 1-15-15v-53.7c0-8.286 6.714-15 15-15s15 6.714 15 15v53.7a15 15 0 0 1-15 15z" opacity=".1" p-id="1742"></path><path d="M209.70278 695.916H127.33278c-8.284 0-15-6.714-15-15s6.716-15 15-15h82.368c8.284 0 15 6.714 15 15s-6.714 15-14.998 15zM236.51878 642.216H153.24278c-8.284 0-15-6.714-15-15s6.716-15 15-15h83.276c8.284 0 15 6.714 15 15s-6.716 15-15 15z" opacity=".1" p-id="1743"></path><path d="M184.88078 695.916a15 15 0 0 1-15-15v-53.7c0-8.286 6.716-15 15-15s15 6.714 15 15v53.7a15 15 0 0 1-15 15z" opacity=".1" p-id="1744"></path><path d="M743.51878 695.916H656.24078c-8.286 0-15-6.714-15-15s6.714-15 15-15h87.278c8.286 0 15 6.714 15 15s-6.716 15-15 15zM778.97878 642.216H656.24078c-8.286 0-15-6.714-15-15s6.714-15 15-15h122.738a15 15 0 0 1 15 15c0 8.286-6.714 15-15 15z" opacity=".1" p-id="1745"></path><path d="M699.88078 695.916a14.998 14.998 0 0 1-15-15v-53.7c0-8.286 6.714-15 15-15a15 15 0 0 1 15 15v53.7a15 15 0 0 1-15 15zM743.51878 642.216a14.998 14.998 0 0 1-15-15v-53.702c0-8.286 6.714-15 15-15s15 6.714 15 15v53.702a15 15 0 0 1-15 15z" opacity=".1" p-id="1746"></path><path d="M93.93478 925.9h836.12v70.46H93.93478z" opacity=".05" p-id="1747"></path><path d="M93.93478 580.58h61.594v415.78H93.93478z" opacity=".1" p-id="1748"></path><path d="M998.50478 580.584H25.49678c-16.34 0-28.458-15.158-24.86-31.096l23.218-102.866a44.02 44.02 0 0 1 42.94-34.328h890.412a44.02 44.02 0 0 1 42.94 34.328l23.218 102.866c3.598 15.938-8.52 31.096-24.86 31.096z" fill="#E77587" p-id="1749"></path><path d="M1008.00478 481.44H15.99678l-6.772 30h1005.552z" opacity=".1" p-id="1750"></path><path d="M331.42078 336h361.16v253.5H331.42078z" fill="#F1F1F1" p-id="1751"></path><path d="M469.75078 488.132h-87.276c-8.284 0-15-6.714-15-15s6.716-15 15-15h87.276c8.284 0 15 6.714 15 15s-6.716 15-15 15zM469.75078 434.434h-87.276c-8.284 0-15-6.714-15-15s6.716-15 15-15h87.276a15 15 0 0 1 0 30z" opacity=".1" p-id="1752"></path><path d="M426.11278 488.132a15 15 0 0 1-15-15v-53.7c0-8.286 6.716-15 15-15s15 6.714 15 15v53.7a15 15 0 0 1-15 15z" opacity=".1" p-id="1753"></path><path d="M331.42078 336h361.16v37.532H331.42078z" opacity=".1" p-id="1754"></path><path d="M733.03478 336.008H290.96678c-13.252 0-23.138-12.204-20.386-25.168l13.136-61.896a43.586 43.586 0 0 1 42.636-34.536h371.296c20.584 0 38.362 14.4 42.636 34.536l13.136 61.896c2.752 12.964-7.136 25.168-20.386 25.168z" fill="#E77587" p-id="1755"></path><path d="M512.00078 527.88m-108.44 0a108.44 108.44 0 1 0 216.88 0 108.44 108.44 0 1 0-216.88 0Z" fill="#FFFFFF" p-id="1756"></path><path d="M512.00078 542.876a15 15 0 0 1-15-15v-51.122a15 15 0 0 1 15-15c8.286 0 15 6.714 15 15v51.122a15 15 0 0 1-15 15z" fill="#4A5058" p-id="1757"></path><path d="M563.12078 542.876H512.00078c-8.284 0-15-6.714-15-15s6.716-15 15-15h51.12c8.286 0 15 6.714 15 15a15 15 0 0 1-15 15z" fill="#4A5058" p-id="1758"></path><path d="M603.58478 755.316h-183.168c-20.954 0-37.942 16.988-37.942 37.942V996.36h259.052V793.258c0-20.954-16.988-37.942-37.942-37.942z" fill="#9B7E73" p-id="1759"></path><path d="M497.00078 755.32h30v241.04h-30z" opacity=".1" p-id="1760"></path><path d="M447.23878 875.536a15 15 0 0 1-15-15V820.7c0-8.286 6.716-15 15-15s15 6.714 15 15v39.836a15 15 0 0 1-15 15zM576.76478 875.536a15 15 0 0 1-15-15V820.7a15 15 0 0 1 15-15c8.286 0 15 6.714 15 15v39.836a15 15 0 0 1-15 15zM270.43478 793.016h-64.46c-13.282 0-24.05-10.768-24.05-24.05v-64.46c0-13.282 10.768-24.05 24.05-24.05h64.46c13.282 0 24.05 10.768 24.05 24.05v64.46c0 13.284-10.768 24.05-24.05 24.05zM753.56678 793.016h64.46c13.282 0 24.05-10.768 24.05-24.05v-64.46c0-13.282-10.768-24.05-24.05-24.05h-64.46c-13.282 0-24.05 10.768-24.05 24.05v64.46c0 13.284 10.768 24.05 24.05 24.05z" fill="#76C9D2" p-id="1761"></path><path d="M206.81478 885.474H69.91678c-29.198 0-52.868 23.67-52.868 52.868v46.224a11.796 11.796 0 0 0 11.796 11.796h219.038a11.796 11.796 0 0 0 11.796-11.796V938.34c0.002-29.198-23.668-52.866-52.864-52.866z" fill="#81D4AE" p-id="1762"></path><path d="M113.47878 885.474h-43.56c-29.198 0-52.868 23.67-52.868 52.868v46.224a11.796 11.796 0 0 0 11.796 11.796h43.56a11.796 11.796 0 0 1-11.796-11.796V938.34c0-29.198 23.67-52.866 52.868-52.866z" opacity=".1" p-id="1763"></path><path d="M817.18678 885.474h136.896c29.198 0 52.868 23.67 52.868 52.868v46.224a11.796 11.796 0 0 1-11.796 11.796H776.11678a11.796 11.796 0 0 1-11.796-11.796V938.34c0-29.198 23.67-52.866 52.866-52.866z" fill="#81D4AE" p-id="1764"></path><path d="M860.74878 885.474h-43.56c-29.198 0-52.868 23.67-52.868 52.868v46.224a11.796 11.796 0 0 0 11.796 11.796h43.56a11.796 11.796 0 0 1-11.796-11.796V938.34c0-29.198 23.67-52.866 52.868-52.866z" opacity=".1" p-id="1765"></path><path d="M512.00078 651.316c-68.066 0-123.442-55.376-123.442-123.442s55.376-123.442 123.442-123.442 123.442 55.376 123.442 123.442-55.376 123.442-123.442 123.442z m0-216.882c-51.524 0-93.442 41.918-93.442 93.442s41.918 93.442 93.442 93.442c51.524 0 93.442-41.918 93.442-93.442S563.52478 434.434 512.00078 434.434z" fill="#76C9D2" p-id="1766"></path></svg>