<svg t="1693713086878" class="icon" viewBox="0 0 1054 1024" version="1.1" xmlns="http://www.w3.org/2000/svg" p-id="11092" width="200" height="200"><path d="M126.875876 427.048583L487.906524 66.017936c9.347991-9.422991 22.301978-15.255985 36.618964-15.255986s27.270973 5.832994 36.614964 15.252986l361.033647 361.033647h72.721929L596.215418 29.914971C577.579436 11.425989 551.911461 0.001 523.575489 0.001h-0.087 0.004l-0.596-0.002c-28.336972 0-54.004947 11.425989-72.647929 29.921971l0.007-0.007L51.57495 427.047583z m171.231833 215.586789H175.872828v373.924635h-54.669946V642.635372H0v-48.480952h298.107709z m11.346989 167.620837a223.423782 223.423782 0 0 1-0.304-11.870989c0-57.616944 20.994979-110.330892 55.752946-150.907852l-0.263 0.314999c35.292966-37.663963 85.344917-61.13094 140.877862-61.13094 3.601996 0 7.179993 0.099 10.73299 0.294l-0.495-0.022c1.963998-0.075 4.269996-0.118 6.584994-0.118 53.454948 0 101.574901 22.842978 135.129868 59.300942l0.118 0.13c32.290968 38.201963 51.918949 88.011914 51.918949 142.406861 0 4.333996-0.125 8.638992-0.37 12.911987l0.027-0.590999c0.191 3.530997 0.299 7.663993 0.299 11.822988 0 57.797944-20.98798 110.694892-55.756945 151.483852l0.271999-0.326999c-34.800966 36.978964-84.064918 60.007941-138.707864 60.007941-2.912997 0-5.810994-0.065-8.691992-0.195l0.409 0.015c-2.699997 0.139-5.860994 0.218-9.040991 0.218-53.993947 0-102.6499-22.856978-136.818867-59.422942l-0.099-0.107c-32.287968-38.002963-51.923949-87.631914-51.923949-141.846861 0-4.349996 0.126-8.669992 0.376-12.956988l-0.028 0.592z m57.248944-4.125996c-0.18 3.034997-0.283 6.583994-0.283 10.15599 0 42.428959 14.471986 81.47692 38.749962 112.47789l-0.300999-0.399c23.809977 28.194972 59.180942 45.978955 98.705903 45.978955 1.562998 0 3.119997-0.028 4.669996-0.082999l-0.224 0.006c1.439999 0.056 3.131997 0.088 4.830995 0.087999 40.042961 0 75.937926-17.755983 100.242902-45.823955l0.141-0.166c24.039977-30.50297 38.557962-69.487932 38.557962-111.86289 0-4.193996-0.142-8.353992-0.421999-12.475988l0.03 0.557999c0.259-3.694996 0.406-8.007992 0.405999-12.354988 0-42.829958-14.302986-82.31892-38.392962-113.950888l0.337 0.460999c-23.423977-27.613973-58.149943-45.022956-96.940906-45.022956-2.183998 0-4.355996 0.055-6.512993 0.164l0.302999-0.012c-0.649999-0.012-1.416999-0.018-2.185997-0.018-40.413961 0-76.586925 18.156982-100.805902 46.758954l-0.159 0.193c-26.128974 31.358969-41.989959 72.07193-41.989959 116.489886 0 3.108997 0.078 6.199994 0.231 9.270991l-0.017-0.430999z m478.622532 52.607948v157.821846h-54.669946V594.15442h119.655883a149.489854 149.489854 0 0 1 10.28599-0.342c36.393964 0 69.851932 12.564988 96.274906 33.592967l-0.315-0.241999c23.353977 21.725979 37.917963 52.630949 37.917963 86.937915 0 2.800997-0.097 5.579995-0.287999 8.332991l0.020999-0.370999c0.047 1.294999 0.074 2.815997 0.074 4.342996 0 38.350963-16.946983 72.743929-43.759957 96.098906l-0.153 0.131c-26.832974 22.966978-61.952939 36.944964-100.337902 36.944964-3.529997 0-7.032993-0.118-10.504989-0.351l0.470999 0.025z m0-216.618788v168.652835h51.57595c2.359998 0.177 5.111995 0.278 7.887992 0.278 25.663975 0 49.310952-8.637992 68.191934-23.165977l-0.263 0.194999c15.989984-14.666986 25.976975-35.656965 25.976975-58.978942 0-1.931998-0.069-3.847996-0.203-5.745994l0.015 0.254999c0-51.57595-31.976969-81.48992-96.446906-81.48992zM675.64234 427.048583L523.493489 274.899732 371.344637 427.048583h304.296703z" p-id="11093" fill="#e98f36"></path></svg>